<?xml version="1.0" encoding="us-ascii" standalone="no"?><svg xmlns="http://www.w3.org/2000/svg" xmlns:xlink="http://www.w3.org/1999/xlink" contentStyleType="text/css" height="252px" preserveAspectRatio="none" style="width:470px;height:252px;background:#FFFFFF;" version="1.1" viewBox="0 0 470 252" width="470px" zoomAndPan="magnify"><defs/><g><ellipse cx="235" cy="20" fill="#222222" rx="10" ry="10" style="stroke:#222222;stroke-width:1.0;"/><rect fill="#F1F1F1" height="36.3441" rx="12.5" ry="12.5" style="stroke:#181818;stroke-width:0.5;" width="48" x="211" y="50"/><text fill="#000000" font-family="sans-serif" font-size="12" lengthAdjust="spacing" textLength="28" x="221" y="72.8281">valor</text><line style="stroke:#181818;stroke-width:1.5;" x1="57" x2="397" y1="106.3441" y2="106.3441"/><rect fill="#F1F1F1" height="36.3441" rx="12.5" ry="12.5" style="stroke:#181818;stroke-width:0.5;" width="92" x="11" y="142.826"/><text fill="#000000" font-family="sans-serif" font-size="12" lengthAdjust="spacing" textLength="72" x="21" y="165.6541">Instrucci&#243;n 1</text><rect fill="#F1F1F1" height="36.3441" rx="12.5" ry="12.5" style="stroke:#181818;stroke-width:0.5;" width="92" x="113" y="142.826"/><text fill="#000000" font-family="sans-serif" font-size="12" lengthAdjust="spacing" textLength="72" x="123" y="165.6541">Instrucci&#243;n 2</text><rect fill="#F1F1F1" height="36.3441" rx="12.5" ry="12.5" style="stroke:#181818;stroke-width:0.5;" width="92" x="233" y="142.826"/><text fill="#000000" font-family="sans-serif" font-size="12" lengthAdjust="spacing" textLength="72" x="243" y="165.6541">Instrucci&#243;n 3</text><rect fill="#F1F1F1" height="36.3441" rx="12.5" ry="12.5" style="stroke:#181818;stroke-width:0.5;" width="124" x="335" y="142.826"/><text fill="#000000" font-family="sans-serif" font-size="12" lengthAdjust="spacing" textLength="104" x="345" y="165.6541">Instrucci&#243;n default</text><line style="stroke:#181818;stroke-width:1.5;" x1="57" x2="397" y1="199.1701" y2="199.1701"/><ellipse cx="235" cy="230.1701" fill="none" rx="11" ry="11" style="stroke:#222222;stroke-width:1.0;"/><ellipse cx="235" cy="230.1701" fill="#222222" rx="6" ry="6" style="stroke:#222222;stroke-width:1.0;"/><line style="stroke:#181818;stroke-width:1.0;" x1="235" x2="235" y1="30" y2="50"/><polygon fill="#181818" points="231,40,235,50,239,40,235,44" style="stroke:#181818;stroke-width:1.0;"/><line style="stroke:#181818;stroke-width:1.0;" x1="57" x2="57" y1="107.8441" y2="142.826"/><polygon fill="#181818" points="53,132.826,57,142.826,61,132.826,57,136.826" style="stroke:#181818;stroke-width:1.0;"/><text fill="#000000" font-family="sans-serif" font-size="11" lengthAdjust="spacing" textLength="31" x="61" y="129.603">case 1</text><line style="stroke:#181818;stroke-width:1.0;" x1="159" x2="159" y1="107.8441" y2="142.826"/><polygon fill="#181818" points="155,132.826,159,142.826,163,132.826,159,136.826" style="stroke:#181818;stroke-width:1.0;"/><text fill="#000000" font-family="sans-serif" font-size="11" lengthAdjust="spacing" textLength="31" x="163" y="129.603">case 2</text><line style="stroke:#181818;stroke-width:1.0;" x1="279" x2="279" y1="107.8441" y2="142.826"/><polygon fill="#181818" points="275,132.826,279,142.826,283,132.826,279,136.826" style="stroke:#181818;stroke-width:1.0;"/><text fill="#000000" font-family="sans-serif" font-size="11" lengthAdjust="spacing" textLength="31" x="283" y="129.603">case 3</text><line style="stroke:#181818;stroke-width:1.0;" x1="397" x2="397" y1="107.8441" y2="142.826"/><polygon fill="#181818" points="393,132.826,397,142.826,401,132.826,397,136.826" style="stroke:#181818;stroke-width:1.0;"/><text fill="#000000" font-family="sans-serif" font-size="11" lengthAdjust="spacing" textLength="37" x="401" y="129.603">default</text><line style="stroke:#181818;stroke-width:1.0;" x1="57" x2="57" y1="179.1701" y2="199.1701"/><polygon fill="#181818" points="53,189.1701,57,199.1701,61,189.1701,57,193.1701" style="stroke:#181818;stroke-width:1.0;"/><line style="stroke:#181818;stroke-width:1.0;" x1="159" x2="159" y1="179.1701" y2="199.1701"/><polygon fill="#181818" points="155,189.1701,159,199.1701,163,189.1701,159,193.1701" style="stroke:#181818;stroke-width:1.0;"/><line style="stroke:#181818;stroke-width:1.0;" x1="279" x2="279" y1="179.1701" y2="199.1701"/><polygon fill="#181818" points="275,189.1701,279,199.1701,283,189.1701,279,193.1701" style="stroke:#181818;stroke-width:1.0;"/><line style="stroke:#181818;stroke-width:1.0;" x1="397" x2="397" y1="179.1701" y2="199.1701"/><polygon fill="#181818" points="393,189.1701,397,199.1701,401,189.1701,397,193.1701" style="stroke:#181818;stroke-width:1.0;"/><line style="stroke:#181818;stroke-width:1.0;" x1="235" x2="235" y1="86.3441" y2="106.3441"/><polygon fill="#181818" points="231,96.3441,235,106.3441,239,96.3441,235,100.3441" style="stroke:#181818;stroke-width:1.0;"/><line style="stroke:#181818;stroke-width:1.0;" x1="235" x2="235" y1="200.6701" y2="219.1701"/><polygon fill="#181818" points="231,209.1701,235,219.1701,239,209.1701,235,213.1701" style="stroke:#181818;stroke-width:1.0;"/><!--SRC=[Aov9B2hXiYfBpCalikOgBiZ9BE5IKD2rKqXEB4vLCBG6SgmyyufBYagJapCFRyu32O5LAIIc9sRc8QarmbHhX4kjCQPQOongKrBJ4ajpIZ0LmoLIyr8K88ukBial0000]--></g></svg>