<?xml version="1.0" encoding="us-ascii" standalone="no"?><svg xmlns="http://www.w3.org/2000/svg" xmlns:xlink="http://www.w3.org/1999/xlink" contentStyleType="text/css" height="309px" preserveAspectRatio="none" style="width:565px;height:309px;background:#FFFFFF;" version="1.1" viewBox="0 0 565 309" width="565px" zoomAndPan="magnify"><defs/><g><!--class proceso--><g id="elem_proceso"><rect codeLine="5" fill="#F1F1F1" height="29.0679" id="proceso" rx="2.5" ry="2.5" style="stroke:#181818;stroke-width:0.5;" width="83" x="118" y="120"/><text fill="#000000" font-family="sans-serif" font-size="14" lengthAdjust="spacing" textLength="77" x="121" y="139.9659">Proceso SW</text></g><!--class algoritmo--><g id="elem_algoritmo"><rect codeLine="6" fill="#F1F1F1" height="29.0679" id="algoritmo" rx="2.5" ry="2.5" style="stroke:#181818;stroke-width:0.5;" width="72" x="274.5" y="120"/><text fill="#000000" font-family="sans-serif" font-size="14" lengthAdjust="spacing" textLength="66" x="277.5" y="139.9659">Algoritmo</text></g><!--class programa--><g id="elem_programa"><rect codeLine="7" fill="#F1F1F1" height="29.0679" id="programa" rx="2.5" ry="2.5" style="stroke:#181818;stroke-width:0.5;" width="72" x="462.5" y="120"/><text fill="#000000" font-family="sans-serif" font-size="14" lengthAdjust="spacing" textLength="66" x="465.5" y="139.9659">Programa</text></g><!--class software--><g id="elem_software"><rect codeLine="8" fill="#F1F1F1" height="29.0679" id="software" rx="2.5" ry="2.5" style="stroke:#181818;stroke-width:0.5;" width="65" x="127" y="274"/><text fill="#000000" font-family="sans-serif" font-size="14" lengthAdjust="spacing" textLength="59" x="130" y="293.9659">Software</text></g><g id="elem_GMN6"><path d="M105.5,6 L105.5,51.412 A0,0 0 0 0 105.5,51.412 L155.5,51.412 L159.5,119.91 L163.5,51.412 L213.5,51.412 A0,0 0 0 0 213.5,51.412 L213.5,16 L203.5,6 L105.5,6 A0,0 0 0 0 105.5,6 " fill="#FEFFDD" style="stroke:#181818;stroke-width:0.5;"/><path d="M203.5,6 L203.5,16 L213.5,16 L203.5,6 " fill="#FEFFDD" style="stroke:#181818;stroke-width:0.5;"/><text fill="#000000" font-family="sans-serif" font-size="13" lengthAdjust="spacing" textLength="87" x="111.5" y="24.897">Metodolog&#237;a y</text><text fill="#000000" font-family="sans-serif" font-size="13" lengthAdjust="spacing" textLength="77" x="111.5" y="42.603">organizaci&#243;n</text></g><g id="elem_GMN9"><path d="M271.5,6 L271.5,51.412 A0,0 0 0 0 271.5,51.412 L306.5,51.412 L310.5,119.91 L314.5,51.412 L349.5,51.412 A0,0 0 0 0 349.5,51.412 L349.5,16 L339.5,6 L271.5,6 A0,0 0 0 0 271.5,6 " fill="#FEFFDD" style="stroke:#181818;stroke-width:0.5;"/><path d="M339.5,6 L339.5,16 L349.5,16 L339.5,6 " fill="#FEFFDD" style="stroke:#181818;stroke-width:0.5;"/><text fill="#000000" font-family="sans-serif" font-size="13" lengthAdjust="spacing" textLength="57" x="277.5" y="24.897">L&#243;gica de</text><text fill="#000000" font-family="sans-serif" font-size="13" lengthAdjust="spacing" textLength="50" x="277.5" y="42.603">soluci&#243;n</text></g><g id="elem_GMN12"><path d="M439,6 L439,51.412 A0,0 0 0 0 439,51.412 L494.5,51.412 L498.5,119.91 L502.5,51.412 L558,51.412 A0,0 0 0 0 558,51.412 L558,16 L548,6 L439,6 A0,0 0 0 0 439,6 " fill="#FEFFDD" style="stroke:#181818;stroke-width:0.5;"/><path d="M548,6 L548,16 L558,16 L548,6 " fill="#FEFFDD" style="stroke:#181818;stroke-width:0.5;"/><text fill="#000000" font-family="sans-serif" font-size="13" lengthAdjust="spacing" textLength="98" x="445" y="24.897">Implementaci&#243;n</text><text fill="#000000" font-family="sans-serif" font-size="13" lengthAdjust="spacing" textLength="59" x="445" y="42.603">en c&#243;digo</text></g><g id="elem_GMN15"><path d="M6,112 L6,157.412 A0,0 0 0 0 6,157.412 L56.98,157.412 L149.2,273.89 L64.98,157.412 L83,157.412 A0,0 0 0 0 83,157.412 L83,122 L73,112 L6,112 A0,0 0 0 0 6,112 " fill="#FEFFDD" style="stroke:#181818;stroke-width:0.5;"/><path d="M73,112 L73,122 L83,122 L73,112 " fill="#FEFFDD" style="stroke:#181818;stroke-width:0.5;"/><text fill="#000000" font-family="sans-serif" font-size="13" lengthAdjust="spacing" textLength="56" x="12" y="130.897">Producto</text><text fill="#000000" font-family="sans-serif" font-size="13" lengthAdjust="spacing" textLength="25" x="12" y="148.603">final</text></g><!--link proceso to algoritmo--><g id="link_proceso_algoritmo"><path codeLine="30" d="M201.16,134.5 C224.12,134.5 246.34,134.5 268.36,134.5 " fill="none" id="proceso-to-algoritmo" style="stroke:#181818;stroke-width:1.0;"/><polygon fill="#181818" points="274.36,134.5,265.36,130.5,269.36,134.5,265.36,138.5,274.36,134.5" style="stroke:#181818;stroke-width:1.0;"/><text fill="#000000" font-family="sans-serif" font-size="13" lengthAdjust="spacing" textLength="37" x="219.25" y="127.397">define</text></g><!--link algoritmo to programa--><g id="link_algoritmo_programa"><path codeLine="31" d="M346.75,134.5 C380.04,134.5 423.11,134.5 456.36,134.5 " fill="none" id="algoritmo-to-programa" style="stroke:#181818;stroke-width:1.0;"/><polygon fill="#181818" points="462.36,134.5,453.36,130.5,457.36,134.5,453.36,138.5,462.36,134.5" style="stroke:#181818;stroke-width:1.0;"/><text fill="#000000" font-family="sans-serif" font-size="13" lengthAdjust="spacing" textLength="79" x="365" y="127.397">se codifica en</text></g><!--link programa to software--><g id="link_programa_software"><path codeLine="32" d="M472.17,149.1 C430.5,170.41 346.58,212.5 273.5,244 C246.46,255.65 220.8065,265.4234 197.8665,273.7934 " fill="none" id="programa-to-software" style="stroke:#181818;stroke-width:1.0;"/><polygon fill="#181818" points="192.23,275.85,202.0558,276.5228,196.9271,274.1362,199.3138,269.0075,192.23,275.85" style="stroke:#181818;stroke-width:1.0;"/><text fill="#000000" font-family="sans-serif" font-size="13" lengthAdjust="spacing" textLength="89" x="391.5" y="220.897">forma parte de</text></g><!--link proceso to software--><g id="link_proceso_software"><path codeLine="34" d="M159.5,149.26 C159.5,178.2 159.5,239.07 159.5,267.88 " fill="none" id="proceso-to-software" style="stroke:#181818;stroke-width:1.0;"/><polygon fill="#181818" points="159.5,273.88,163.5,264.88,159.5,268.88,155.5,264.88,159.5,273.88" style="stroke:#181818;stroke-width:1.0;"/><text fill="#000000" font-family="sans-serif" font-size="13" lengthAdjust="spacing" textLength="50" x="187.5" y="201.897">produce</text><path d="M164.5,211.706 L164.5,238.706 L260.5,238.706 L260.5,221.706 L250.5,211.706 L164.5,211.706 " fill="#FEFFDD" style="stroke:#181818;stroke-width:0.5;"/><path d="M250.5,211.706 L250.5,221.706 L260.5,221.706 L250.5,211.706 " fill="#FEFFDD" style="stroke:#181818;stroke-width:0.5;"/><text fill="#000000" font-family="sans-serif" font-size="13" lengthAdjust="spacing" textLength="75" x="170.5" y="230.603">"a trav&#233;s de"</text></g><!--SRC=[VL4nJiGm4Ept5Qlqzm4A94eaa92ke5xiZMFXU2FRTwVZHnHKUK8-XfsBVGSIT5xFZ7TcF5ZDEFBunY72K0PbWt9yESV4WIMT9uu0ob6CE0LH70KfOlUodVUltOQICn9i6Y_uGvswgzW46gcgrw62KVfqei0hkD-63i1BOamoeVHrEpnp4YrEpF95U0O9Xhpz86MNsGDxZKNqKzgimTCo6wi8DKCKT_XFL0t3upWv7jcdjWFLCcjhv0zbJGCvfZwe9D1RJ-w6NPlS1Mk6jBk_AUyEEysPd-DVBnkljPXfCN-OQDkNFEmxQ5XZjrepkvUGeOb2zgbBjys3bfF_HPvMuvcrnXAFplht0X2cGCVbCvOtlW40]--></g></svg>