<?xml version="1.0" encoding="us-ascii" standalone="no"?><svg xmlns="http://www.w3.org/2000/svg" xmlns:xlink="http://www.w3.org/1999/xlink" contentStyleType="text/css" height="309px" preserveAspectRatio="none" style="width:751px;height:309px;background:#FFFFFF;" version="1.1" viewBox="0 0 751 309" width="751px" zoomAndPan="magnify"><defs/><g><!--class automatizacion--><g id="elem_automatizacion"><rect codeLine="5" fill="#F1F1F1" height="48.1358" id="automatizacion" rx="2.5" ry="2.5" style="stroke:#181818;stroke-width:0.5;" width="110" x="24" y="112"/><text fill="#000000" font-family="sans-serif" font-size="14" lengthAdjust="spacing" textLength="104" x="27" y="131.9659">Automatizaci&#243;n</text><text fill="#000000" font-family="sans-serif" font-size="14" lengthAdjust="spacing" textLength="56" x="51" y="151.0339">humana</text></g><!--class programa--><g id="elem_programa"><rect codeLine="6" fill="#F1F1F1" height="48.1358" id="programa" rx="2.5" ry="2.5" style="stroke:#181818;stroke-width:0.5;" width="72" x="270" y="112"/><text fill="#000000" font-family="sans-serif" font-size="14" lengthAdjust="spacing" textLength="66" x="273" y="131.9659">Programa</text><text fill="#000000" font-family="sans-serif" font-size="14" lengthAdjust="spacing" textLength="45" x="283.5" y="151.0339">simple</text></g><!--class programaComplejo--><g id="elem_programaComplejo"><rect codeLine="7" fill="#F1F1F1" height="48.1358" id="programaComplejo" rx="2.5" ry="2.5" style="stroke:#181818;stroke-width:0.5;" width="72" x="444" y="112"/><text fill="#000000" font-family="sans-serif" font-size="14" lengthAdjust="spacing" textLength="66" x="447" y="131.9659">Programa</text><text fill="#000000" font-family="sans-serif" font-size="14" lengthAdjust="spacing" textLength="61" x="449.5" y="151.0339">complejo</text></g><!--class procesoSW--><g id="elem_procesoSW"><rect codeLine="8" fill="#F1F1F1" height="29.0679" id="procesoSW" rx="2.5" ry="2.5" style="stroke:#181818;stroke-width:0.5;" width="83" x="602.5" y="121.5"/><text fill="#000000" font-family="sans-serif" font-size="14" lengthAdjust="spacing" textLength="77" x="605.5" y="141.4659">Proceso SW</text></g><!--class algoritmo--><g id="elem_algoritmo"><rect codeLine="9" fill="#F1F1F1" height="29.0679" id="algoritmo" rx="2.5" ry="2.5" style="stroke:#181818;stroke-width:0.5;" width="72" x="444" y="256"/><text fill="#000000" font-family="sans-serif" font-size="14" lengthAdjust="spacing" textLength="66" x="447" y="275.9659">Algoritmo</text></g><g id="elem_GMN7"><path d="M6,6 L6,51.412 A0,0 0 0 0 6,51.412 L75,51.412 L79,111.96 L83,51.412 L152,51.412 A0,0 0 0 0 152,51.412 L152,16 L142,6 L6,6 A0,0 0 0 0 6,6 " fill="#FEFFDD" style="stroke:#181818;stroke-width:0.5;"/><path d="M142,6 L142,16 L152,16 L142,6 " fill="#FEFFDD" style="stroke:#181818;stroke-width:0.5;"/><text fill="#000000" font-family="sans-serif" font-size="13" lengthAdjust="spacing" textLength="119" x="12" y="24.897">Necesidad hist&#243;rica:</text><text fill="#000000" font-family="sans-serif" font-size="13" lengthAdjust="spacing" textLength="125" x="12" y="42.603">simplificar y reutilizar</text></g><g id="elem_GMN10"><path d="M246.5,6 L246.5,51.412 A0,0 0 0 0 246.5,51.412 L302,51.412 L306,111.96 L310,51.412 L365.5,51.412 A0,0 0 0 0 365.5,51.412 L365.5,16 L355.5,6 L246.5,6 A0,0 0 0 0 246.5,6 " fill="#FEFFDD" style="stroke:#181818;stroke-width:0.5;"/><path d="M355.5,6 L355.5,16 L365.5,16 L355.5,6 " fill="#FEFFDD" style="stroke:#181818;stroke-width:0.5;"/><text fill="#000000" font-family="sans-serif" font-size="13" lengthAdjust="spacing" textLength="98" x="252.5" y="24.897">Implementaci&#243;n</text><text fill="#000000" font-family="sans-serif" font-size="13" lengthAdjust="spacing" textLength="41" x="252.5" y="42.603">directa</text></g><g id="elem_GMN13"><path d="M406,6 L406,51.412 A0,0 0 0 0 406,51.412 L471.23,51.412 L478.69,111.96 L479.23,51.412 L542,51.412 A0,0 0 0 0 542,51.412 L542,16 L532,6 L406,6 A0,0 0 0 0 406,6 " fill="#FEFFDD" style="stroke:#181818;stroke-width:0.5;"/><path d="M532,6 L532,16 L542,16 L532,6 " fill="#FEFFDD" style="stroke:#181818;stroke-width:0.5;"/><text fill="#000000" font-family="sans-serif" font-size="13" lengthAdjust="spacing" textLength="115" x="412" y="24.897">Mayor complejidad</text><text fill="#000000" font-family="sans-serif" font-size="13" lengthAdjust="spacing" textLength="91" x="412" y="42.603">y funcionalidad</text></g><g id="elem_GMN16"><path d="M577.5,6 L577.5,51.412 A0,0 0 0 0 577.5,51.412 L653.52,51.412 L646.18,121.45 L661.52,51.412 L744.5,51.412 A0,0 0 0 0 744.5,51.412 L744.5,16 L734.5,6 L577.5,6 A0,0 0 0 0 577.5,6 " fill="#FEFFDD" style="stroke:#181818;stroke-width:0.5;"/><path d="M734.5,6 L734.5,16 L744.5,16 L734.5,6 " fill="#FEFFDD" style="stroke:#181818;stroke-width:0.5;"/><text fill="#000000" font-family="sans-serif" font-size="13" lengthAdjust="spacing" textLength="107" x="583.5" y="24.897">Metodolog&#237;a para</text><text fill="#000000" font-family="sans-serif" font-size="13" lengthAdjust="spacing" textLength="146" x="583.5" y="42.603">gestionar la complejidad</text></g><g id="elem_GMN19"><path d="M551.5,239 L551.5,266.5 L516.29,270.5 L551.5,274.5 L551.5,302.118 A0,0 0 0 0 551.5,302.118 L734.5,302.118 A0,0 0 0 0 734.5,302.118 L734.5,249 L724.5,239 L551.5,239 A0,0 0 0 0 551.5,239 " fill="#FEFFDD" style="stroke:#181818;stroke-width:0.5;"/><path d="M724.5,239 L724.5,249 L734.5,249 L724.5,239 " fill="#FEFFDD" style="stroke:#181818;stroke-width:0.5;"/><text fill="#000000" font-family="sans-serif" font-size="13" lengthAdjust="spacing" textLength="162" x="557.5" y="257.897">Herramienta metodol&#243;gica</text><text fill="#000000" font-family="sans-serif" font-size="13" lengthAdjust="spacing" textLength="132" x="557.5" y="275.603">transversal que se usa</text><text fill="#000000" font-family="sans-serif" font-size="13" lengthAdjust="spacing" textLength="104" x="557.5" y="293.309">en cualquier nivel</text></g><!--link automatizacion to programa--><g id="link_automatizacion_programa"><path codeLine="37" d="M134.24,136 C176.37,136 227.18,136 263.71,136 " fill="none" id="automatizacion-to-programa" style="stroke:#181818;stroke-width:1.0;"/><polygon fill="#181818" points="269.71,136,260.71,132,264.71,136,260.71,140,269.71,136" style="stroke:#181818;stroke-width:1.0;"/><text fill="#000000" font-family="sans-serif" font-size="13" lengthAdjust="spacing" textLength="99" x="152.5" y="128.897">evoluciona hacia</text></g><!--link programa to programaComplejo--><g id="link_programa_programaComplejo"><path codeLine="38" d="M342.05,136 C371.92,136 408.14,136 437.99,136 " fill="none" id="programa-to-programaComplejo" style="stroke:#181818;stroke-width:1.0;"/><polygon fill="#181818" points="443.99,136,434.99,132,438.99,136,434.99,140,443.99,136" style="stroke:#181818;stroke-width:1.0;"/><text fill="#000000" font-family="sans-serif" font-size="13" lengthAdjust="spacing" textLength="65" x="360.5" y="128.897">crece hacia</text></g><!--link programaComplejo to procesoSW--><g id="link_programaComplejo_procesoSW"><path codeLine="39" d="M516.4,136 C541.78,136 569.72,136 596.21,136 " fill="none" id="programaComplejo-to-procesoSW" style="stroke:#181818;stroke-width:1.0;"/><polygon fill="#181818" points="602.21,136,593.21,132,597.21,136,593.21,140,602.21,136" style="stroke:#181818;stroke-width:1.0;"/><text fill="#000000" font-family="sans-serif" font-size="13" lengthAdjust="spacing" textLength="50" x="534.25" y="128.897">requiere</text></g><!--reverse link programa to algoritmo--><g id="link_programa_algoritmo"><path codeLine="41" d="M341.0833,163.7154 C377.4933,191.4454 432.61,233.41 462.25,255.98 " fill="none" id="programa-backto-algoritmo" style="stroke:#181818;stroke-width:1.0;"/><polygon fill="#181818" points="336.31,160.08,341.0464,168.7152,340.2877,163.1095,345.8935,162.3508,336.31,160.08" style="stroke:#181818;stroke-width:1.0;"/><text fill="#000000" font-family="sans-serif" font-size="13" lengthAdjust="spacing" textLength="55" x="400" y="204.897">se usa en</text></g><!--reverse link programaComplejo to algoritmo--><g id="link_programaComplejo_algoritmo"><path codeLine="42" d="M480,166.08 C480,193.81 480,233.41 480,255.98 " fill="none" id="programaComplejo-backto-algoritmo" style="stroke:#181818;stroke-width:1.0;"/><polygon fill="#181818" points="480,160.08,476,169.08,480,165.08,484,169.08,480,160.08" style="stroke:#181818;stroke-width:1.0;"/><text fill="#000000" font-family="sans-serif" font-size="13" lengthAdjust="spacing" textLength="55" x="481" y="204.897">se usa en</text></g><!--reverse link procesoSW to algoritmo--><g id="link_procesoSW_algoritmo"><path codeLine="43" d="M622.4027,154.4504 C590.9727,179.8404 528.63,230.21 497.09,255.7 " fill="none" id="procesoSW-backto-algoritmo" style="stroke:#181818;stroke-width:1.0;"/><polygon fill="#181818" points="627.07,150.68,617.5554,153.224,623.1806,153.822,622.5826,159.4472,627.07,150.68" style="stroke:#181818;stroke-width:1.0;"/><text fill="#000000" font-family="sans-serif" font-size="13" lengthAdjust="spacing" textLength="55" x="578" y="204.897">se usa en</text></g><!--SRC=[XLAxRW8n4EptArRNymCKaL2Qf22AH453i_4jTuvyzh6saSW_fU8J-B7Ozu3Z8fBEQy-CPrPJwvAnuUQ3nKET1wL56UxFFh2m2wUMFO0ov3rI3AwXeBz8QMUHF1QhoTNbR7UsZWrPAWP6AwuIQgZ3lW_3pdhTj8Rde6UNRp_T3Ao6wmbSiNURxOZB4swsupkPoeaEJQ-p6gS2mBh065oBRZ_B0c-SL7H99TRQXyjPjA8bT3xrFfq5JoWSWpQ98S2snAnshpa6WTVik64R-gr0gOLLe7zeOtvOqya93hcpAJZXFjfib4mtFnJgDmDh3gvqnbMNRyAMXA1Y7p9VqD2Tz4nAT5M7Ra7Zuk259TdJEKwgIoTyELTfAH24h3-c-f31GqoTOOm-nqGLoHoYPa6hZsmclynAjEW-N3pTghB4We_En2ukrWcMwdHz_OM_jYRnL5eppobNm9GwD2XnX3kVgOrmQyuYjZDBVJHaMpo4JPty3R_zViFz0000]--></g></svg>