<?xml version="1.0" encoding="us-ascii" standalone="no"?><svg xmlns="http://www.w3.org/2000/svg" xmlns:xlink="http://www.w3.org/1999/xlink" contentStyleType="text/css" height="574px" preserveAspectRatio="none" style="width:510px;height:574px;background:#FFFFFF;" version="1.1" viewBox="0 0 510 574" width="510px" zoomAndPan="magnify"><defs/><g><!--class problema--><g id="elem_problema"><rect codeLine="4" fill="#F1F1F1" height="64.4799" id="problema" rx="2.5" ry="2.5" style="stroke:#181818;stroke-width:0.5;" width="102" x="202.5" y="23.5"/><text fill="#000000" font-family="sans-serif" font-size="12" font-style="italic" lengthAdjust="spacing" textLength="64" x="221.5" y="41.3281">&#171;&#191;Por qu&#233;?&#187;</text><text fill="#000000" font-family="sans-serif" font-size="14" lengthAdjust="spacing" textLength="96" x="205.5" y="59.81">Problemas del</text><text fill="#000000" font-family="sans-serif" font-size="14" lengthAdjust="spacing" textLength="93" x="207" y="78.878">desarrollo SW</text></g><g id="elem_GMN3"><path d="M339.5,6 L339.5,51.5 L304.71,55.5 L339.5,59.5 L339.5,104.5301 A0,0 0 0 0 339.5,104.5301 L501.5,104.5301 A0,0 0 0 0 501.5,104.5301 L501.5,16 L491.5,6 L339.5,6 A0,0 0 0 0 339.5,6 " fill="#FEFFDD" style="stroke:#181818;stroke-width:0.5;"/><path d="M491.5,6 L491.5,16 L501.5,16 L491.5,6 " fill="#FEFFDD" style="stroke:#181818;stroke-width:0.5;"/><text fill="#000000" font-family="sans-serif" font-size="13" lengthAdjust="spacing" textLength="98" x="345.5" y="24.897">Inefectividad en:</text><text fill="#000000" font-family="sans-serif" font-size="13" lengthAdjust="spacing" textLength="136" x="345.5" y="42.603">&#8226; Variables econ&#243;micas</text><text fill="#000000" font-family="sans-serif" font-size="13" lengthAdjust="spacing" textLength="128" x="345.5" y="60.309">&#8226; Calidad del software</text><text fill="#000000" font-family="sans-serif" font-size="13" lengthAdjust="spacing" textLength="98" x="345.5" y="78.0151">&#8226; Mantenibilidad</text><text fill="#000000" font-family="sans-serif" font-size="13" lengthAdjust="spacing" textLength="141" x="345.5" y="95.7211">&#8226; Complejidad arbitraria</text></g><!--class proceso--><g id="elem_proceso"><rect codeLine="13" fill="#F1F1F1" height="64.4799" id="proceso" rx="2.5" ry="2.5" style="stroke:#181818;stroke-width:0.5;" width="86" x="210.5" y="184"/><text fill="#000000" font-family="sans-serif" font-size="12" font-style="italic" lengthAdjust="spacing" textLength="44" x="231.5" y="201.8281">&#171;&#191;Qu&#233;?&#187;</text><text fill="#000000" font-family="sans-serif" font-size="14" lengthAdjust="spacing" textLength="80" x="213.5" y="220.31">Procesos de</text><text fill="#000000" font-family="sans-serif" font-size="14" lengthAdjust="spacing" textLength="68" x="219.5" y="239.378">desarrollo</text></g><g id="elem_GMN7"><path d="M6,184.5 L6,247.618 A0,0 0 0 0 6,247.618 L175,247.618 A0,0 0 0 0 175,247.618 L175,220 L210.36,216 L175,212 L175,194.5 L165,184.5 L6,184.5 A0,0 0 0 0 6,184.5 " fill="#FEFFDD" style="stroke:#181818;stroke-width:0.5;"/><path d="M165,184.5 L165,194.5 L175,194.5 L165,184.5 " fill="#FEFFDD" style="stroke:#181818;stroke-width:0.5;"/><text fill="#000000" font-family="sans-serif" font-size="13" lengthAdjust="spacing" textLength="144" x="12" y="203.397">Actividades organizadas</text><text fill="#000000" font-family="sans-serif" font-size="13" lengthAdjust="spacing" textLength="90" x="12" y="221.103">Roles definidos</text><text fill="#000000" font-family="sans-serif" font-size="13" lengthAdjust="spacing" textLength="148" x="12" y="238.809">Artefactos estructurados</text></g><!--class necesidad--><g id="elem_necesidad"><rect codeLine="20" fill="#F1F1F1" height="64.4799" id="necesidad" rx="2.5" ry="2.5" style="stroke:#181818;stroke-width:0.5;" width="98" x="204.5" y="335.5"/><text fill="#000000" font-family="sans-serif" font-size="12" font-style="italic" lengthAdjust="spacing" textLength="49" x="229" y="353.3281">&#171;Brecha&#187;</text><text fill="#000000" font-family="sans-serif" font-size="14" lengthAdjust="spacing" textLength="92" x="207.5" y="371.81">Necesidad de</text><text fill="#000000" font-family="sans-serif" font-size="14" lengthAdjust="spacing" textLength="62" x="222.5" y="390.878">precisi&#243;n</text></g><g id="elem_GMN11"><path d="M337.5,327 L337.5,363.5 L302.75,367.5 L337.5,371.5 L337.5,407.8241 A0,0 0 0 0 337.5,407.8241 L503.5,407.8241 A0,0 0 0 0 503.5,407.8241 L503.5,337 L493.5,327 L337.5,327 A0,0 0 0 0 337.5,327 " fill="#FEFFDD" style="stroke:#181818;stroke-width:0.5;"/><path d="M493.5,327 L493.5,337 L503.5,337 L493.5,327 " fill="#FEFFDD" style="stroke:#181818;stroke-width:0.5;"/><text fill="#000000" font-family="sans-serif" font-size="13" lengthAdjust="spacing" textLength="138" x="343.5" y="345.897">Los procesos necesitan</text><text fill="#000000" font-family="sans-serif" font-size="13" lengthAdjust="spacing" textLength="131" x="343.5" y="363.603">m&#233;todos sistem&#225;ticos</text><text fill="#000000" font-family="sans-serif" font-size="13" lengthAdjust="spacing" textLength="145" x="343.5" y="381.309">para resolver problemas</text><text fill="#000000" font-family="sans-serif" font-size="13" lengthAdjust="spacing" textLength="110" x="343.5" y="399.0151">de forma repetible</text></g><!--class algoritmo--><g id="elem_algoritmo"><rect codeLine="28" fill="#F1F1F1" height="45.412" id="algoritmo" rx="2.5" ry="2.5" style="stroke:#181818;stroke-width:0.5;" width="79" x="214" y="505"/><text fill="#000000" font-family="sans-serif" font-size="12" font-style="italic" lengthAdjust="spacing" textLength="67" x="220" y="522.8281">&#171;&#191;Soluci&#243;n?&#187;</text><text fill="#000000" font-family="sans-serif" font-size="14" lengthAdjust="spacing" textLength="73" x="217" y="541.31">Algoritmos</text></g><g id="elem_GMN15"><path d="M42.5,487 L42.5,567.8241 A0,0 0 0 0 42.5,567.8241 L178.5,567.8241 A0,0 0 0 0 178.5,567.8241 L178.5,531.5 L213.74,527.5 L178.5,523.5 L178.5,497 L168.5,487 L42.5,487 A0,0 0 0 0 42.5,487 " fill="#FEFFDD" style="stroke:#181818;stroke-width:0.5;"/><path d="M168.5,487 L168.5,497 L178.5,497 L168.5,487 " fill="#FEFFDD" style="stroke:#181818;stroke-width:0.5;"/><text fill="#000000" font-family="sans-serif" font-size="13" lengthAdjust="spacing" textLength="114" x="48.5" y="505.897">Secuencias finitas y</text><text fill="#000000" font-family="sans-serif" font-size="13" lengthAdjust="spacing" textLength="101" x="48.5" y="523.603">bien definidas de</text><text fill="#000000" font-family="sans-serif" font-size="13" lengthAdjust="spacing" textLength="109" x="48.5" y="541.309">instrucciones para</text><text fill="#000000" font-family="sans-serif" font-size="13" lengthAdjust="spacing" textLength="115" x="48.5" y="559.0151">resolver problemas</text></g><!--link problema to proceso--><g id="link_problema_proceso"><path codeLine="36" d="M253.5,87.81 C253.5,115.6 253.5,149.98 253.5,177.75 " fill="none" id="problema-to-proceso" style="stroke:#181818;stroke-width:1.0;"/><polygon fill="#181818" points="253.5,183.75,257.5,174.75,253.5,178.75,249.5,174.75,253.5,183.75" style="stroke:#181818;stroke-width:1.0;"/><text fill="#000000" font-family="sans-serif" font-size="13" lengthAdjust="spacing" textLength="42" x="254.5" y="149.897">motiva</text></g><!--link proceso to necesidad--><g id="link_proceso_necesidad"><path codeLine="37" d="M253.5,248.34 C253.5,273.94 253.5,303.94 253.5,329.46 " fill="none" id="proceso-to-necesidad" style="stroke:#181818;stroke-width:1.0;"/><polygon fill="#181818" points="253.5,335.46,257.5,326.46,253.5,330.46,249.5,326.46,253.5,335.46" style="stroke:#181818;stroke-width:1.0;"/><text fill="#000000" font-family="sans-serif" font-size="13" lengthAdjust="spacing" textLength="50" x="254.5" y="292.897">requiere</text></g><!--link necesidad to algoritmo--><g id="link_necesidad_algoritmo"><path codeLine="38" d="M253.5,399.72 C253.5,430.83 253.5,471.79 253.5,498.97 " fill="none" id="necesidad-to-algoritmo" style="stroke:#181818;stroke-width:1.0;"/><polygon fill="#181818" points="253.5,504.97,257.5,495.97,253.5,499.97,249.5,495.97,253.5,504.97" style="stroke:#181818;stroke-width:1.0;"/><text fill="#000000" font-family="sans-serif" font-size="13" lengthAdjust="spacing" textLength="37" x="254.5" y="452.897">lleva a</text></g><!--SRC=[RPB1RXGn38RlUOfexds1gbgqvOG4gB0INBXu4i-kKH9FdSnMvSIhjBUU-m18p9lm93WppEmME4qS_sD__fq3URGHOukIpQ46ZiG5DCO5oDdsmct021QoRMx-1Dbw35-InmmY70BRtUV6Nbtz_773Oc-7yUdLPcCI5xH2-qCnRn9sw0eToOEtc2xDh- -FzXC8WHRC5XsdyJcIWpnbNaEObDh6PkxA7GXEYNUG2YPgQShFMevzmA-J7gIb8hMimUHj9JWRn67cPOvwhcESJp6FyE4SFs1Np7OXLrAMFIJw1bv9Ft9bzzXH8i_PRALW1wveOSn51bS6WPhucoMXjf-1bURz6bMSNj1Hfl4vLPnhZGxmqiotl4wpb2gGJ1oV2citcoaNZED38QUzUn2mejfmH5dNcOrkkcE9DTTZ8Rtz1nF2deLAd4tRBb6UVTfn65pbV6dM3js0oP7-Kdqf-hqtBM5QZ9fUZw4qEUI8atfO8Sr_84z4wpkyy7oNBZRhFYzj4rdt0urPhXR9oMOL2TuEX8ADELqlmjEWAWm1Z_hSczy0]--></g></svg>