<?xml version="1.0" encoding="us-ascii" standalone="no"?><svg xmlns="http://www.w3.org/2000/svg" xmlns:xlink="http://www.w3.org/1999/xlink" contentStyleType="text/css" height="432px" preserveAspectRatio="none" style="width:818px;height:432px;background:#FFFFFF;" version="1.1" viewBox="0 0 818 432" width="818px" zoomAndPan="magnify"><defs/><g><!--class automatizacion--><g id="elem_automatizacion"><rect codeLine="4" fill="#F1F1F1" height="64.4799" id="automatizacion" rx="2.5" ry="2.5" style="stroke:#181818;stroke-width:0.5;" width="158" x="320" y="23.5"/><text fill="#000000" font-family="sans-serif" font-size="12" font-style="italic" lengthAdjust="spacing" textLength="49" x="374.5" y="41.3281">&#171;Origen&#187;</text><text fill="#000000" font-family="sans-serif" font-size="14" lengthAdjust="spacing" textLength="152" x="323" y="59.81">Necesidad humana de</text><text fill="#000000" font-family="sans-serif" font-size="14" lengthAdjust="spacing" textLength="103" x="347.5" y="78.878">automatizaci&#243;n</text></g><g id="elem_GMN3"><path d="M512.5,6 L512.5,51.5 L478.16,55.5 L512.5,59.5 L512.5,104.5301 A0,0 0 0 0 512.5,104.5301 L671.5,104.5301 A0,0 0 0 0 671.5,104.5301 L671.5,16 L661.5,6 L512.5,6 A0,0 0 0 0 512.5,6 " fill="#FEFFDD" style="stroke:#181818;stroke-width:0.5;"/><path d="M661.5,6 L661.5,16 L671.5,16 L661.5,6 " fill="#FEFFDD" style="stroke:#181818;stroke-width:0.5;"/><text fill="#000000" font-family="sans-serif" font-size="13" lengthAdjust="spacing" textLength="125" x="518.5" y="24.897">Desde el &#225;baco hasta</text><text fill="#000000" font-family="sans-serif" font-size="13" lengthAdjust="spacing" textLength="100" x="518.5" y="42.603">los ordenadores:</text><text fill="#000000" font-family="sans-serif" font-size="13" lengthAdjust="spacing" textLength="109" x="518.5" y="60.309">&#8226; Simplificar tareas</text><text fill="#000000" font-family="sans-serif" font-size="13" lengthAdjust="spacing" textLength="129" x="518.5" y="78.0151">&#8226; Reutilizar soluciones</text><text fill="#000000" font-family="sans-serif" font-size="13" lengthAdjust="spacing" textLength="138" x="518.5" y="95.7211">&#8226; Sistematizar procesos</text></g><!--class algoritmo--><g id="elem_algoritmo"><rect codeLine="13" fill="#F1F1F1" height="45.412" id="algoritmo" rx="2.5" ry="2.5" style="stroke:#181818;stroke-width:0.5;" width="160" x="177" y="211"/><text fill="#000000" font-family="sans-serif" font-size="12" font-style="italic" lengthAdjust="spacing" textLength="158" x="178" y="228.8281">&#171;Herramienta metodol&#243;gica&#187;</text><text fill="#000000" font-family="sans-serif" font-size="14" lengthAdjust="spacing" textLength="73" x="220.5" y="247.31">Algoritmos</text></g><g id="elem_GMN7"><path d="M6,193 L6,273.8241 A0,0 0 0 0 6,273.8241 L142,273.8241 A0,0 0 0 0 142,273.8241 L142,237.5 L176.78,233.5 L142,229.5 L142,203 L132,193 L6,193 A0,0 0 0 0 6,193 " fill="#FEFFDD" style="stroke:#181818;stroke-width:0.5;"/><path d="M132,193 L132,203 L142,203 L132,193 " fill="#FEFFDD" style="stroke:#181818;stroke-width:0.5;"/><text fill="#000000" font-family="sans-serif" font-size="13" lengthAdjust="spacing" textLength="114" x="12" y="211.897">Secuencias finitas y</text><text fill="#000000" font-family="sans-serif" font-size="13" lengthAdjust="spacing" textLength="101" x="12" y="229.603">bien definidas de</text><text fill="#000000" font-family="sans-serif" font-size="13" lengthAdjust="spacing" textLength="109" x="12" y="247.309">instrucciones para</text><text fill="#000000" font-family="sans-serif" font-size="13" lengthAdjust="spacing" textLength="115" x="12" y="265.0151">resolver problemas</text></g><!--class problema--><g id="elem_problema"><rect codeLine="21" fill="#F1F1F1" height="64.4799" id="problema" rx="2.5" ry="2.5" style="stroke:#181818;stroke-width:0.5;" width="142" x="472" y="201.5"/><text fill="#000000" font-family="sans-serif" font-size="12" font-style="italic" lengthAdjust="spacing" textLength="140" x="473" y="219.3281">&#171;Manifestaci&#243;n moderna&#187;</text><text fill="#000000" font-family="sans-serif" font-size="14" lengthAdjust="spacing" textLength="96" x="495" y="237.81">Problemas del</text><text fill="#000000" font-family="sans-serif" font-size="14" lengthAdjust="spacing" textLength="93" x="496.5" y="256.878">desarrollo SW</text></g><g id="elem_GMN11"><path d="M649,184 L649,229.5 L614.22,233.5 L649,237.5 L649,282.5301 A0,0 0 0 0 649,282.5301 L811,282.5301 A0,0 0 0 0 811,282.5301 L811,194 L801,184 L649,184 A0,0 0 0 0 649,184 " fill="#FEFFDD" style="stroke:#181818;stroke-width:0.5;"/><path d="M801,184 L801,194 L811,194 L801,184 " fill="#FEFFDD" style="stroke:#181818;stroke-width:0.5;"/><text fill="#000000" font-family="sans-serif" font-size="13" lengthAdjust="spacing" textLength="98" x="655" y="202.897">Inefectividad en:</text><text fill="#000000" font-family="sans-serif" font-size="13" lengthAdjust="spacing" textLength="136" x="655" y="220.603">&#8226; Variables econ&#243;micas</text><text fill="#000000" font-family="sans-serif" font-size="13" lengthAdjust="spacing" textLength="128" x="655" y="238.309">&#8226; Calidad del software</text><text fill="#000000" font-family="sans-serif" font-size="13" lengthAdjust="spacing" textLength="98" x="655" y="256.0151">&#8226; Mantenibilidad</text><text fill="#000000" font-family="sans-serif" font-size="13" lengthAdjust="spacing" textLength="141" x="655" y="273.7211">&#8226; Complejidad arbitraria</text></g><!--class proceso--><g id="elem_proceso"><rect codeLine="30" fill="#F1F1F1" height="64.4799" id="proceso" rx="2.5" ry="2.5" style="stroke:#181818;stroke-width:0.5;" width="184" x="331" y="362"/><text fill="#000000" font-family="sans-serif" font-size="12" font-style="italic" lengthAdjust="spacing" textLength="182" x="332" y="379.8281">&#171;Organizaci&#243;n para complejidad&#187;</text><text fill="#000000" font-family="sans-serif" font-size="14" lengthAdjust="spacing" textLength="80" x="383" y="398.31">Procesos de</text><text fill="#000000" font-family="sans-serif" font-size="14" lengthAdjust="spacing" textLength="68" x="389" y="417.378">desarrollo</text></g><g id="elem_GMN15"><path d="M126.5,362.5 L126.5,425.618 A0,0 0 0 0 126.5,425.618 L295.5,425.618 A0,0 0 0 0 295.5,425.618 L295.5,398 L330.64,394 L295.5,390 L295.5,372.5 L285.5,362.5 L126.5,362.5 A0,0 0 0 0 126.5,362.5 " fill="#FEFFDD" style="stroke:#181818;stroke-width:0.5;"/><path d="M285.5,362.5 L285.5,372.5 L295.5,372.5 L285.5,362.5 " fill="#FEFFDD" style="stroke:#181818;stroke-width:0.5;"/><text fill="#000000" font-family="sans-serif" font-size="13" lengthAdjust="spacing" textLength="144" x="132.5" y="381.397">Actividades organizadas</text><text fill="#000000" font-family="sans-serif" font-size="13" lengthAdjust="spacing" textLength="90" x="132.5" y="399.103">Roles definidos</text><text fill="#000000" font-family="sans-serif" font-size="13" lengthAdjust="spacing" textLength="148" x="132.5" y="416.809">Artefactos estructurados</text></g><!--link automatizacion to algoritmo--><g id="link_automatizacion_algoritmo"><path codeLine="37" d="M373.94,87.56 C345.36,122.99 303.1268,175.3197 278.1968,206.2297 " fill="none" id="automatizacion-to-algoritmo" style="stroke:#181818;stroke-width:1.0;"/><polygon fill="#181818" points="274.43,210.9,283.1937,206.4057,277.569,207.0081,276.9666,201.3834,274.43,210.9" style="stroke:#181818;stroke-width:1.0;"/><text fill="#000000" font-family="sans-serif" font-size="13" lengthAdjust="spacing" textLength="59" x="334" y="149.897">da lugar a</text></g><!--link automatizacion to problema--><g id="link_automatizacion_problema"><path codeLine="38" d="M424.41,87.56 C450.65,119.63 487.5598,164.7469 513.7998,196.8069 " fill="none" id="automatizacion-to-problema" style="stroke:#181818;stroke-width:1.0;"/><polygon fill="#181818" points="517.6,201.45,514.9951,191.9519,514.4332,197.5808,508.8043,197.0188,517.6,201.45" style="stroke:#181818;stroke-width:1.0;"/><text fill="#000000" font-family="sans-serif" font-size="13" lengthAdjust="spacing" textLength="96" x="477" y="149.897">se manifiesta en</text></g><!--link problema to proceso--><g id="link_problema_proceso"><path codeLine="39" d="M519.29,265.81 C498.25,293.6 471.3012,329.196 450.2812,356.966 " fill="none" id="problema-to-proceso" style="stroke:#181818;stroke-width:1.0;"/><polygon fill="#181818" points="446.66,361.75,455.2811,356.9881,449.6777,357.7633,448.9024,352.1598,446.66,361.75" style="stroke:#181818;stroke-width:1.0;"/><text fill="#000000" font-family="sans-serif" font-size="13" lengthAdjust="spacing" textLength="199" x="484" y="327.897">requiere cuando hay complejidad</text></g><!--link algoritmo to problema--><g id="link_algoritmo_problema"><path codeLine="40" d="M337.05,233.5 C379.35,233.5 424.84,233.5 465.75,233.5 " fill="none" id="algoritmo-to-problema" style="stroke:#181818;stroke-width:1.0;"/><polygon fill="#181818" points="471.75,233.5,462.75,229.5,466.75,233.5,462.75,237.5,471.75,233.5" style="stroke:#181818;stroke-width:1.0;"/><text fill="#000000" font-family="sans-serif" font-size="13" lengthAdjust="spacing" textLength="98" x="355.5" y="226.397">ayuda a resolver</text></g><!--link algoritmo to proceso--><g id="link_algoritmo_proceso"><path codeLine="41" d="M279.73,256.21 C308.33,283.51 353.2808,326.4262 385.9308,357.6062 " fill="none" id="algoritmo-to-proceso" style="stroke:#181818;stroke-width:1.0;"/><polygon fill="#181818" points="390.27,361.75,386.5238,352.6415,386.654,358.2968,380.9986,358.427,390.27,361.75" style="stroke:#181818;stroke-width:1.0;"/><text fill="#000000" font-family="sans-serif" font-size="13" lengthAdjust="spacing" textLength="55" x="356" y="327.897">se usa en</text></g><!--SRC=[TLDBRXin3Dth58Jtla0G633IHRle1p6GRhBXI1mF2utaKb82TzMhj5Vm4NoJdgIKnkFOQRCI995wFsfWHp3Is94aCzIDPR6UZB4UKm8iEOwO-GTQZW4mmU8JMKhiqC5GHWm8ZXx3PTtn41PmU_jPU4jXjJ8XPWBT3DcyewGGvE7ugqCROS2KqVYO88gZW2uAfHlpv-TlsF2uyzopHO6CGfZQyJsLp5vn15BqfRAYT6f8cIOE0Zk9oZ8cGy519N0MvBTHE8-nQLdFkrGPloSH79b2HlKaHnVzyR1L1hC8Jtqs6xA5WcNjxpbmrdLlEkrI8-g1qmD7XaFAKkn447OeQ5HRz4_Ks7LUkVvBRxvfxBxCPVgUVmoE4ef4xoDilbQ-7p5mJ-fWynp6w4W2NZl-8L1FDlDJIup2PEu32gE-dO1i3CV3g28d5-_Gjqf5L8Fx_ApMjmi5onIuutO_rKQDYBwrUfIEizHd_wUfPZ5BQhcqeNaHDCtBLlMS1gWP1lO5u2g2zIo8wk1CRMgxkOzLqYa63NyjcNgqMV6efP6BeBkQYbS3ldJnEInN5sDo0mk7uCjMfmeNRzMVSzFof3-g9iCr6hLyOSwt5-ND4gqM-bwOH3zUmU3gbzXVwbR4CvLbY_GL6kwByaEOX-kjXXbFsPNKQFq5]--></g></svg>