<?xml version="1.0" encoding="us-ascii" standalone="no"?><svg xmlns="http://www.w3.org/2000/svg" xmlns:xlink="http://www.w3.org/1999/xlink" contentStyleType="text/css" height="906px" preserveAspectRatio="none" style="width:927px;height:906px;background:#FFFFFF;" version="1.1" viewBox="0 0 927 906" width="927px" zoomAndPan="magnify"><defs/><g><!--class Program--><g id="elem_Program"><rect codeLine="5" fill="#F1F1F1" height="29.0679" id="Program" rx="2.5" ry="2.5" style="stroke:#181818;stroke-width:0.5;" width="64" x="449.5" y="7"/><text fill="#000000" font-family="sans-serif" font-size="14" lengthAdjust="spacing" textLength="58" x="452.5" y="26.9659">Program</text></g><!--class Package--><g id="elem_Package"><rect codeLine="6" fill="#F1F1F1" height="29.0679" id="Package" rx="2.5" ry="2.5" style="stroke:#181818;stroke-width:0.5;" width="61" x="451" y="97"/><text fill="#000000" font-family="sans-serif" font-size="14" lengthAdjust="spacing" textLength="55" x="454" y="116.9659">Package</text></g><!--class Class--><g id="elem_Class"><rect codeLine="7" fill="#F1F1F1" height="29.0679" id="Class" rx="2.5" ry="2.5" style="stroke:#181818;stroke-width:0.5;" width="41" x="461" y="187"/><text fill="#000000" font-family="sans-serif" font-size="14" lengthAdjust="spacing" textLength="35" x="464" y="206.9659">Class</text></g><!--class Enum--><g id="elem_Enum"><rect codeLine="8" fill="#F1F1F1" height="29.0679" id="Enum" rx="2.5" ry="2.5" style="stroke:#181818;stroke-width:0.5;" width="45" x="7" y="277"/><text fill="#000000" font-family="sans-serif" font-size="14" lengthAdjust="spacing" textLength="39" x="10" y="296.9659">Enum</text></g><!--class Method--><g id="elem_Method"><rect codeLine="9" fill="#F1F1F1" height="29.0679" id="Method" rx="2.5" ry="2.5" style="stroke:#181818;stroke-width:0.5;" width="58" x="452.5" y="277"/><text fill="#000000" font-family="sans-serif" font-size="14" lengthAdjust="spacing" textLength="52" x="455.5" y="296.9659">Method</text></g><!--class Sentence--><g id="elem_Sentence"><rect codeLine="10" fill="#F1F1F1" height="29.0679" id="Sentence" rx="2.5" ry="2.5" style="stroke:#181818;stroke-width:0.5;" width="68" x="380.5" y="367"/><text fill="#000000" font-family="sans-serif" font-size="14" lengthAdjust="spacing" textLength="62" x="383.5" y="386.9659">Sentence</text></g><!--class Expression--><g id="elem_Expression"><rect codeLine="11" fill="#F1F1F1" height="29.0679" id="Expression" rx="2.5" ry="2.5" style="stroke:#181818;stroke-width:0.5;" width="79" x="449" y="475"/><text fill="#000000" font-family="sans-serif" font-size="14" lengthAdjust="spacing" textLength="73" x="452" y="494.9659">Expression</text></g><!--class Operator--><g id="elem_Operator"><rect codeLine="12" fill="#F1F1F1" height="29.0679" id="Operator" rx="2.5" ry="2.5" style="stroke:#181818;stroke-width:0.5;" width="67" x="510" y="583"/><text fill="#000000" font-family="sans-serif" font-size="14" lengthAdjust="spacing" textLength="61" x="513" y="602.9659">Operator</text></g><!--class Data--><g id="elem_Data"><rect codeLine="13" fill="#F1F1F1" height="29.0679" id="Data" rx="2.5" ry="2.5" style="stroke:#181818;stroke-width:0.5;" width="37" x="380" y="673"/><text fill="#000000" font-family="sans-serif" font-size="14" lengthAdjust="spacing" textLength="31" x="383" y="692.9659">Data</text></g><!--class Object--><g id="elem_Object"><rect codeLine="14" fill="#F1F1F1" height="29.0679" id="Object" rx="2.5" ry="2.5" style="stroke:#181818;stroke-width:0.5;" width="50" x="461.5" y="781"/><text fill="#000000" font-family="sans-serif" font-size="14" lengthAdjust="spacing" textLength="44" x="464.5" y="800.9659">Object</text></g><!--class Exception--><g id="elem_Exception"><rect codeLine="15" fill="#F1F1F1" height="29.0679" id="Exception" rx="2.5" ry="2.5" style="stroke:#181818;stroke-width:0.5;" width="71" x="451" y="871"/><text fill="#000000" font-family="sans-serif" font-size="14" lengthAdjust="spacing" textLength="65" x="454" y="890.9659">Exception</text></g><!--class Variable--><g id="elem_Variable"><rect codeLine="16" fill="#F1F1F1" height="29.0679" id="Variable" rx="2.5" ry="2.5" style="stroke:#181818;stroke-width:0.5;" width="61" x="365" y="781"/><text fill="#000000" font-family="sans-serif" font-size="14" lengthAdjust="spacing" textLength="55" x="368" y="800.9659">Variable</text></g><!--class Clasificador--><g id="elem_Clasificador"><rect codeLine="19" fill="#F1F1F1" height="29.0679" id="Clasificador" rx="2.5" ry="2.5" style="stroke:#181818;stroke-width:0.5;" width="85" x="669" y="781"/><text fill="#000000" font-family="sans-serif" font-size="14" lengthAdjust="spacing" textLength="79" x="672" y="800.9659">Clasificador</text></g><!--class PrimitiveType--><g id="elem_PrimitiveType"><rect codeLine="20" fill="#F1F1F1" height="29.0679" id="PrimitiveType" rx="2.5" ry="2.5" style="stroke:#181818;stroke-width:0.5;" width="97" x="663" y="871"/><text fill="#000000" font-family="sans-serif" font-size="14" lengthAdjust="spacing" textLength="91" x="666" y="890.9659">PrimitiveType</text></g><!--link Program to Package--><g id="link_Program_Package"><path codeLine="22" d="M481.5,48.25 C481.5,64.78 481.5,74.36 481.5,90.85 " fill="none" id="Program-Package" style="stroke:#181818;stroke-width:1.0;"/><polygon fill="#181818" points="481.5,36.25,477.5,42.25,481.5,48.25,485.5,42.25,481.5,36.25" style="stroke:#181818;stroke-width:1.0;"/><polygon fill="#181818" points="481.5,96.85,485.5,87.85,481.5,91.85,477.5,87.85,481.5,96.85" style="stroke:#181818;stroke-width:1.0;"/><text fill="#000000" font-family="sans-serif" font-size="13" lengthAdjust="spacing" textLength="7" x="473.2094" y="85.3281">+</text></g><!--link Package to Package--><g id="link_Package_Package"><path codeLine="23" d="M524.1099,102.6346 C542.1099,100.9846 547,104.67 547,111.5 C547,118.33 536.1349,121.4677 518.1349,119.8177 " fill="none" id="Package-Package" style="stroke:#181818;stroke-width:1.0;"/><polygon fill="#181818" points="512.16,103.73,518.5001,107.1656,524.1099,102.6346,517.7698,99.199,512.16,103.73" style="stroke:#181818;stroke-width:1.0;"/><polygon fill="#181818" points="512.16,119.27,520.7573,124.0749,517.1391,119.7264,521.4876,116.1083,512.16,119.27" style="stroke:#181818;stroke-width:1.0;"/><text fill="#000000" font-family="sans-serif" font-size="13" lengthAdjust="spacing" textLength="7" x="520.0595" y="116.072">*</text></g><!--link Package to Class--><g id="link_Package_Class"><path codeLine="24" d="M481.5,138.25 C481.5,154.78 481.5,164.36 481.5,180.85 " fill="none" id="Package-Class" style="stroke:#181818;stroke-width:1.0;"/><polygon fill="#181818" points="481.5,126.25,477.5,132.25,481.5,138.25,485.5,132.25,481.5,126.25" style="stroke:#181818;stroke-width:1.0;"/><polygon fill="#181818" points="481.5,186.85,485.5,177.85,481.5,181.85,477.5,177.85,481.5,186.85" style="stroke:#181818;stroke-width:1.0;"/><text fill="#000000" font-family="sans-serif" font-size="13" lengthAdjust="spacing" textLength="7" x="473.2094" y="175.3281">*</text></g><!--link Class to Class--><g id="link_Class_Class"><path codeLine="25" d="M514.1086,192.4388 C531.1386,189.5288 537,193.89 537,201.5 C537,209.11 525.2243,212.4606 508.1943,209.5506 " fill="none" id="Class-Class" style="stroke:#181818;stroke-width:1.0;"/><polygon fill="#181818" points="502.28,194.46,508.868,197.3923,514.1086,192.4388,507.5205,189.5065,502.28,194.46" style="stroke:#181818;stroke-width:1.0;"/><polygon fill="#181818" points="502.28,208.54,510.4777,213.9988,507.2086,209.3822,511.8252,206.1131,502.28,208.54" style="stroke:#181818;stroke-width:1.0;"/><text fill="#000000" font-family="sans-serif" font-size="13" lengthAdjust="spacing" textLength="48" x="543" y="206.897">anidada</text><text fill="#000000" font-family="sans-serif" font-size="13" lengthAdjust="spacing" textLength="7" x="510.0192" y="205.0733">*</text></g><!--link Class to Clasificador--><g id="link_Class_Clasificador"><path codeLine="26" d="M514.3327,204.5489 C585.0827,209.3289 799.5,228.63 799.5,290.5 C799.5,290.5 799.5,290.5 799.5,688.5 C799.5,729.4 765.1984,759.5815 739.1184,777.3515 " fill="none" id="Class-Clasificador" style="stroke:#181818;stroke-width:1.0;"/><polygon fill="#181818" points="502.36,203.74,508.0767,208.1354,514.3327,204.5489,508.616,200.1535,502.36,203.74" style="stroke:#181818;stroke-width:1.0;"/><polygon fill="#181818" points="734.16,780.73,743.8499,778.9679,738.292,777.9146,739.3453,772.3567,734.16,780.73" style="stroke:#181818;stroke-width:1.0;"/><text fill="#000000" font-family="sans-serif" font-size="13" lengthAdjust="spacing" textLength="66" x="800.5" y="494.897">dependecy</text><text fill="#000000" font-family="sans-serif" font-size="13" lengthAdjust="spacing" textLength="7" x="734.2253" y="769.1639">*</text></g><!--reverse link Clasificador to Class--><g id="link_Clasificador_Class"><path codeLine="44" d="M771.9408,789.6006 C833.0408,782.8406 920.5,762.44 920.5,688.5 C920.5,290.5 920.5,290.5 920.5,290.5 C920.5,204.02 588.88,201.39 502.09,202.18 " fill="none" id="Clasificador-backto-Class" style="stroke:#181818;stroke-width:1.0;"/><polygon fill="none" points="754.05,791.58,772.6006,795.5642,771.281,783.637,754.05,791.58" style="stroke:#181818;stroke-width:1.0;"/></g><!--link Class to Data--><g id="link_Class_Data"><path codeLine="27" d="M448.7537,203.1668 C369.9237,205.1168 105.5,216.92 105.5,290.5 C105.5,290.5 105.5,290.5 105.5,598.5 C105.5,655.99 309.0839,678.645 373.7539,684.435 " fill="none" id="Class-Data" style="stroke:#181818;stroke-width:1.0;"/><polygon fill="#181818" points="460.75,202.87,454.6529,199.0196,448.7537,203.1668,454.8508,207.0172,460.75,202.87" style="stroke:#181818;stroke-width:1.0;"/><polygon fill="#181818" points="379.73,684.97,371.1226,680.1834,374.7499,684.5241,370.4092,688.1515,379.73,684.97" style="stroke:#181818;stroke-width:1.0;"/><text fill="#000000" font-family="sans-serif" font-size="13" lengthAdjust="spacing" textLength="53" x="106.5" y="440.897">atributte</text><text fill="#000000" font-family="sans-serif" font-size="13" lengthAdjust="spacing" textLength="7" x="365.0747" y="678.1851">*</text></g><!--link Class to Method--><g id="link_Class_Method"><path codeLine="28" d="M481.5,228.25 C481.5,244.78 481.5,254.36 481.5,270.85 " fill="none" id="Class-Method" style="stroke:#181818;stroke-width:1.0;"/><polygon fill="#181818" points="481.5,216.25,477.5,222.25,481.5,228.25,485.5,222.25,481.5,216.25" style="stroke:#181818;stroke-width:1.0;"/><polygon fill="#181818" points="481.5,276.85,485.5,267.85,481.5,271.85,477.5,267.85,481.5,276.85" style="stroke:#181818;stroke-width:1.0;"/><text fill="#000000" font-family="sans-serif" font-size="13" lengthAdjust="spacing" textLength="7" x="473.2094" y="265.3281">+</text></g><!--reverse link Class to Enum--><g id="link_Class_Enum"><path codeLine="29" d="M442.709,203.6602 C370.459,205.9502 148.96,215.19 79.5,246 C63.99,252.88 49.91,266.39 40.67,276.72 " fill="none" id="Class-backto-Enum" style="stroke:#181818;stroke-width:1.0;"/><polygon fill="none" points="460.7,203.09,442.519,197.6632,442.8991,209.6572,460.7,203.09" style="stroke:#181818;stroke-width:1.0;"/></g><!--link Method to Sentence--><g id="link_Method_Sentence"><path codeLine="30" d="M463.759,315.7964 C451.169,332.3264 441.0837,345.5855 428.5337,362.0755 " fill="none" id="Method-Sentence" style="stroke:#181818;stroke-width:1.0;"/><polygon fill="#181818" points="471.03,306.25,464.2124,308.5995,463.759,315.7964,470.5766,313.4468,471.03,306.25" style="stroke:#181818;stroke-width:1.0;"/><polygon fill="#181818" points="424.9,366.85,433.5336,362.1107,427.9281,362.8712,427.1676,357.2657,424.9,366.85" style="stroke:#181818;stroke-width:1.0;"/><text fill="#000000" font-family="sans-serif" font-size="13" lengthAdjust="spacing" textLength="7" x="420.4444" y="355.3281">+</text></g><!--link Method to Data--><g id="link_Method_Data"><path codeLine="31" d="M440.3616,296.3647 C367.1416,303.8147 193.5,326.78 193.5,380.5 C193.5,380.5 193.5,380.5 193.5,598.5 C193.5,679.25 323.48,686.8352 373.95,686.8752 " fill="none" id="Method-Data" style="stroke:#181818;stroke-width:1.0;"/><polygon fill="#181818" points="452.3,295.15,445.9259,291.7779,440.3616,296.3647,446.7357,299.7368,452.3,295.15" style="stroke:#181818;stroke-width:1.0;"/><polygon fill="#181818" points="379.95,686.88,370.95,682.88,374.95,686.88,370.95,690.88,379.95,686.88" style="stroke:#181818;stroke-width:1.0;"/><text fill="#000000" font-family="sans-serif" font-size="13" lengthAdjust="spacing" textLength="63" x="194.5" y="494.897">parameter</text><text fill="#000000" font-family="sans-serif" font-size="13" lengthAdjust="spacing" textLength="7" x="365.0947" y="703.6979">*</text></g><!--link Method to Data--><g id="link_Method_Data"><path codeLine="32" d="M441.0908,305.631 C412.4208,316.201 381.51,332.67 362.5,367 C304.23,472.23 366.9789,621.2883 389.1189,667.5283 " fill="none" id="Method-Data-1" style="stroke:#181818;stroke-width:1.0;"/><polygon fill="#181818" points="452.35,301.48,445.3367,299.8024,441.0908,305.631,448.1041,307.3086,452.35,301.48" style="stroke:#181818;stroke-width:1.0;"/><polygon fill="#181818" points="391.71,672.94,391.4311,663.0951,389.5507,668.4303,384.2155,666.5499,391.71,672.94" style="stroke:#181818;stroke-width:1.0;"/><text fill="#000000" font-family="sans-serif" font-size="13" lengthAdjust="spacing" textLength="27" x="342.5" y="494.897">local</text><text fill="#000000" font-family="sans-serif" font-size="13" lengthAdjust="spacing" textLength="7" x="380.7869" y="661.167">*</text></g><!--link Sentence to Expression--><g id="link_Sentence_Expression"><path codeLine="33" d="M431.0405,406.1985 C445.3005,426.6185 461.4943,449.8211 475.6243,470.0511 " fill="none" id="Sentence-Expression" style="stroke:#181818;stroke-width:1.0;"/><polygon fill="#181818" points="424.17,396.36,424.3258,403.5694,431.0405,406.1985,430.8848,398.9891,424.17,396.36" style="stroke:#181818;stroke-width:1.0;"/><polygon fill="#181818" points="479.06,474.97,477.1857,465.3011,476.1969,470.8709,470.6271,469.8821,479.06,474.97" style="stroke:#181818;stroke-width:1.0;"/><text fill="#000000" font-family="sans-serif" font-size="13" lengthAdjust="spacing" textLength="7" x="467.1266" y="463.2085">+</text></g><!--link Expression to Operator--><g id="link_Expression_Operator"><path codeLine="34" d="M501.2187,515.0105 C511.8187,535.4305 523.2159,557.4146 533.7159,577.6446 " fill="none" id="Expression-Operator" style="stroke:#181818;stroke-width:1.0;"/><polygon fill="#181818" points="495.69,504.36,494.9042,511.5282,501.2187,515.0105,502.0045,507.8424,495.69,504.36" style="stroke:#181818;stroke-width:1.0;"/><polygon fill="#181818" points="536.48,582.97,535.8842,573.1392,534.1766,578.5322,528.7836,576.8246,536.48,582.97" style="stroke:#181818;stroke-width:1.0;"/><text fill="#000000" font-family="sans-serif" font-size="13" lengthAdjust="spacing" textLength="7" x="525.4693" y="571.2085">*</text></g><!--link Expression to Data--><g id="link_Expression_Data"><path codeLine="35" d="M472.8477,514.2033 C461.3377,531.8633 447.96,553.78 434.5,583 C420.18,614.1 409.8744,646.8784 404.0244,667.0084 " fill="none" id="Expression-Data" style="stroke:#181818;stroke-width:1.0;"/><polygon fill="#181818" points="479.4,504.15,472.7728,506.9925,472.8477,514.2033,479.475,511.3607,479.4,504.15" style="stroke:#181818;stroke-width:1.0;"/><polygon fill="#181818" points="402.35,672.77,408.7027,665.2438,403.7453,667.9686,401.0205,663.0113,402.35,672.77" style="stroke:#181818;stroke-width:1.0;"/><text fill="#000000" font-family="sans-serif" font-size="13" lengthAdjust="spacing" textLength="56" x="435.5" y="602.897">reference</text><text fill="#000000" font-family="sans-serif" font-size="13" lengthAdjust="spacing" textLength="7" x="395.4791" y="661.2186">+</text></g><!--link Expression to Method--><g id="link_Expression_Method"><path codeLine="36" d="M487.5907,462.9977 C486.3107,427.2377 483.4944,348.3562 482.2044,312.2762 " fill="none" id="Expression-Method" style="stroke:#181818;stroke-width:1.0;"/><polygon fill="#181818" points="488.02,474.99,491.8028,468.8508,487.5907,462.9977,483.8079,469.1369,488.02,474.99" style="stroke:#181818;stroke-width:1.0;"/><polygon fill="#181818" points="481.99,306.28,478.3141,315.4172,482.1687,311.2768,486.309,315.1313,481.99,306.28" style="stroke:#181818;stroke-width:1.0;"/><text fill="#000000" font-family="sans-serif" font-size="13" lengthAdjust="spacing" textLength="63" x="486.5" y="386.897">invocation</text><text fill="#000000" font-family="sans-serif" font-size="13" lengthAdjust="spacing" textLength="7" x="473.9929" y="327.9942">*</text></g><!--link Method to Clasificador--><g id="link_Method_Clasificador"><path codeLine="37" d="M500.17,306.21 C517.53,319.85 542.97,342.27 558.5,367 C606.29,443.12 648.11,669.27 685.5,751 C690.26,761.4 693.6473,767.4118 699.0173,775.7718 " fill="none" id="Method-to-Clasificador" style="stroke:#181818;stroke-width:1.0;stroke-dasharray:7.0,7.0;"/><polygon fill="#181818" points="702.26,780.82,700.7614,771.0858,699.5577,776.6131,694.0304,775.4094,702.26,780.82" style="stroke:#181818;stroke-width:1.0;"/><text fill="#000000" font-family="sans-serif" font-size="13" lengthAdjust="spacing" textLength="38" x="625.5" y="548.897">return</text><text fill="#000000" font-family="sans-serif" font-size="13" lengthAdjust="spacing" textLength="6" x="691.7465" y="769.287">?</text></g><!--link Method to Clasificador--><g id="link_Method_Clasificador"><path codeLine="38" d="M510.63,297.32 C572.52,308.38 711.5,337.96 711.5,380.5 C711.5,380.5 711.5,380.5 711.5,688.5 C711.5,721.62 711.5,754.57 711.5,774.78 " fill="none" id="Method-to-Clasificador-1" style="stroke:#181818;stroke-width:1.0;stroke-dasharray:7.0,7.0;"/><polygon fill="#181818" points="711.5,780.78,715.5,771.78,711.5,775.78,707.5,771.78,711.5,780.78" style="stroke:#181818;stroke-width:1.0;"/><text fill="#000000" font-family="sans-serif" font-size="13" lengthAdjust="spacing" textLength="63" x="712.5" y="548.897">parameter</text><text fill="#000000" font-family="sans-serif" font-size="13" lengthAdjust="spacing" textLength="7" x="703.2094" y="769.2323">*</text></g><!--reverse link Data to Variable--><g id="link_Data_Variable"><path codeLine="39" d="M397.5989,720.3527 C397.0189,740.7727 396.46,760.74 395.88,780.97 " fill="none" id="Data-backto-Variable" style="stroke:#181818;stroke-width:1.0;"/><polygon fill="none" points="398.11,702.36,391.6014,720.1824,403.5965,720.5231,398.11,702.36" style="stroke:#181818;stroke-width:1.0;"/></g><!--reverse link Data to Object--><g id="link_Data_Object"><path codeLine="40" d="M421.5006,716.2069 C438.4606,736.6269 458.47,760.74 475.27,780.97 " fill="none" id="Data-backto-Object" style="stroke:#181818;stroke-width:1.0;"/><polygon fill="none" points="410,702.36,416.885,720.0404,426.1162,712.3733,410,702.36" style="stroke:#181818;stroke-width:1.0;"/></g><!--reverse link Object to Exception--><g id="link_Object_Exception"><path codeLine="41" d="M486.5,828.25 C486.5,844.78 486.5,854.36 486.5,870.85 " fill="none" id="Object-backto-Exception" style="stroke:#181818;stroke-width:1.0;"/><polygon fill="none" points="486.5,810.25,480.5,828.25,492.5,828.25,486.5,810.25" style="stroke:#181818;stroke-width:1.0;"/></g><!--link Operator to Data--><g id="link_Operator_Data"><path codeLine="42" d="M521.16,612.06 C492.72,629.32 449.2095,655.7273 422.5295,671.9173 " fill="none" id="Operator-to-Data" style="stroke:#181818;stroke-width:1.0;stroke-dasharray:7.0,7.0;"/><polygon fill="#181818" points="417.4,675.03,427.1693,673.7806,421.6745,672.4361,423.0191,666.9414,417.4,675.03" style="stroke:#181818;stroke-width:1.0;"/></g><!--link Data to Clasificador--><g id="link_Data_Clasificador"><path codeLine="43" d="M417.24,696.64 C446.59,709.23 505.35,733.76 556.5,751 C593.98,763.63 631.5742,774.076 662.9042,782.246 " fill="none" id="Data-to-Clasificador" style="stroke:#181818;stroke-width:1.0;"/><polygon fill="#181818" points="668.71,783.76,661.0106,777.6184,663.8718,782.4983,658.9919,785.3596,668.71,783.76" style="stroke:#181818;stroke-width:1.0;"/><text fill="#000000" font-family="sans-serif" font-size="13" lengthAdjust="spacing" textLength="47" x="557.5" y="746.897">est&#225;tico</text></g><!--reverse link Clasificador to PrimitiveType--><g id="link_Clasificador_PrimitiveType"><path codeLine="45" d="M711.5,828.25 C711.5,844.78 711.5,854.36 711.5,870.85 " fill="none" id="Clasificador-backto-PrimitiveType" style="stroke:#181818;stroke-width:1.0;"/><polygon fill="none" points="711.5,810.25,705.5,828.25,717.5,828.25,711.5,810.25" style="stroke:#181818;stroke-width:1.0;"/></g><!--SRC=[XLDBJiCm4DtFAQmkMxK7Y10ie4j49H3xYJDj3OaTsTD21Ho6it0nd8_jfcbX4sNotioRpyjM5IGggdAo3hPD89ML9NNlZicIuKDD3a2Mw9nOMREnM8aGedp53ONmjdtsmLBl8k-UU6kA43sIPj8ofYtVQqlEAQF3buUQBBAn8Rv3neZbBoGvvKgg-IZr6Qt2l2Jn0T9en-YrCf4RKn9g-3hgLAsLn2A9hAog5AizFVc91K2OTJelp9kUNul9R18cXZ1v0gV_WEroe5lH612PGAqABF0I9RQRYO9gqWN9mpbkkojVZQtATymqulWfkdlqoDLd1xKNW_vK0teus1XCUZNwNP5tp5-aqaWi8Tv_899S04U665G9jZXFc4KPIslltARXIvNw7ZEXzDxtr1WezBrOUChDQEUMU6U7fF5XqXBQJk9cWobFFdTMXjxHwGx1qn3_WqQloUqApFqK9yha-EURbJGm06BDvBunDZ3-Bm00]--></g></svg>