<?xml version="1.0" encoding="us-ascii" standalone="no"?><svg xmlns="http://www.w3.org/2000/svg" xmlns:xlink="http://www.w3.org/1999/xlink" contentStyleType="text/css" height="746px" preserveAspectRatio="none" style="width:912px;height:746px;background:#FFFFFF;" version="1.1" viewBox="0 0 912 746" width="912px" zoomAndPan="magnify"><defs/><g><!--class donde--><g id="elem_donde"><rect codeLine="4" fill="#F1F1F1" height="64.4799" id="donde" rx="2.5" ry="2.5" style="stroke:#181818;stroke-width:0.5;" width="98" x="213" y="7"/><text fill="#000000" font-family="sans-serif" font-size="12" font-style="italic" lengthAdjust="spacing" textLength="57" x="233.5" y="24.8281">&#171;&#191;D&#243;nde?&#187;</text><text fill="#000000" font-family="sans-serif" font-size="14" lengthAdjust="spacing" textLength="26" x="249" y="43.31">Sun</text><text fill="#000000" font-family="sans-serif" font-size="14" lengthAdjust="spacing" textLength="92" x="216" y="62.378">Microsystems</text></g><g id="elem_GMN3"><path d="M6,7.5 L6,70.618 A0,0 0 0 0 6,70.618 L178,70.618 A0,0 0 0 0 178,70.618 L178,43 L212.97,39 L178,35 L178,17.5 L168,7.5 L6,7.5 A0,0 0 0 0 6,7.5 " fill="#FEFFDD" style="stroke:#181818;stroke-width:0.5;"/><path d="M168,7.5 L168,17.5 L178,17.5 L168,7.5 " fill="#FEFFDD" style="stroke:#181818;stroke-width:0.5;"/><text fill="#000000" font-family="sans-serif" font-size="13" lengthAdjust="spacing" textLength="141" x="12" y="26.397">Fabricante de hardware</text><text fill="#000000" font-family="sans-serif" font-size="13" lengthAdjust="spacing" textLength="143" x="12" y="44.103">y desarrollo de software</text><text fill="#000000" font-family="sans-serif" font-size="13" lengthAdjust="spacing" textLength="151" x="12" y="61.809">Pionero de Sillycon Valley</text></g><!--class cuando--><g id="elem_cuando"><rect codeLine="11" fill="#F1F1F1" height="45.412" id="cuando" rx="2.5" ry="2.5" style="stroke:#181818;stroke-width:0.5;" width="66" x="542" y="16.5"/><text fill="#000000" font-family="sans-serif" font-size="12" font-style="italic" lengthAdjust="spacing" textLength="64" x="543" y="34.3281">&#171;&#191;Cu&#225;ndo?&#187;</text><text fill="#000000" font-family="sans-serif" font-size="14" lengthAdjust="spacing" textLength="32" x="559" y="52.81">1991</text></g><g id="elem_GMN7"><path d="M643.5,16.5 L643.5,35 L608.22,39 L643.5,43 L643.5,61.912 A0,0 0 0 0 643.5,61.912 L776.5,61.912 A0,0 0 0 0 776.5,61.912 L776.5,26.5 L766.5,16.5 L643.5,16.5 A0,0 0 0 0 643.5,16.5 " fill="#FEFFDD" style="stroke:#181818;stroke-width:0.5;"/><path d="M766.5,16.5 L766.5,26.5 L776.5,26.5 L766.5,16.5 " fill="#FEFFDD" style="stroke:#181818;stroke-width:0.5;"/><text fill="#000000" font-family="sans-serif" font-size="13" lengthAdjust="spacing" textLength="103" x="649.5" y="35.397">Coincidiendo con</text><text fill="#000000" font-family="sans-serif" font-size="13" lengthAdjust="spacing" textLength="112" x="649.5" y="53.103">la World Wide Web</text></g><!--class por--><g id="elem_por"><rect codeLine="17" fill="#F1F1F1" height="64.4799" id="por" rx="2.5" ry="2.5" style="stroke:#181818;stroke-width:0.5;" width="116" x="462" y="139.5"/><text fill="#000000" font-family="sans-serif" font-size="12" font-style="italic" lengthAdjust="spacing" textLength="64" x="488" y="157.3281">&#171;&#191;Por qu&#233;?&#187;</text><text fill="#000000" font-family="sans-serif" font-size="14" lengthAdjust="spacing" textLength="110" x="465" y="175.81">Dependencia de</text><text fill="#000000" font-family="sans-serif" font-size="14" lengthAdjust="spacing" textLength="90" x="475" y="194.878">la plataforma</text></g><g id="elem_GMN11"><path d="M175.5,131 L175.5,211.8241 A0,0 0 0 0 175.5,211.8241 L426.5,211.8241 A0,0 0 0 0 426.5,211.8241 L426.5,175.5 L461.72,171.5 L426.5,167.5 L426.5,141 L416.5,131 L175.5,131 A0,0 0 0 0 175.5,131 " fill="#FEFFDD" style="stroke:#181818;stroke-width:0.5;"/><path d="M416.5,131 L416.5,141 L426.5,141 L416.5,131 " fill="#FEFFDD" style="stroke:#181818;stroke-width:0.5;"/><text fill="#000000" font-family="sans-serif" font-size="13" lengthAdjust="spacing" textLength="165" x="181.5" y="149.897">Un programa compilado en</text><text fill="#000000" font-family="sans-serif" font-size="13" lengthAdjust="spacing" textLength="230" x="181.5" y="167.603">una m&#225;quina con un sitema operativo,</text><text fill="#000000" font-family="sans-serif" font-size="13" lengthAdjust="spacing" textLength="182" x="181.5" y="185.309">no funcionar&#225; ejecutado sobre</text><text fill="#000000" font-family="sans-serif" font-size="13" lengthAdjust="spacing" textLength="136" x="181.5" y="203.0151">otro sistema operativo</text></g><!--class quien--><g id="elem_quien"><rect codeLine="25" fill="#F1F1F1" height="45.412" id="quien" rx="2.5" ry="2.5" style="stroke:#181818;stroke-width:0.5;" width="101" x="469.5" y="281"/><text fill="#000000" font-family="sans-serif" font-size="12" font-style="italic" lengthAdjust="spacing" textLength="54" x="493" y="298.8281">&#171;&#191;Qui&#233;n?&#187;</text><text fill="#000000" font-family="sans-serif" font-size="14" lengthAdjust="spacing" textLength="95" x="472.5" y="317.31">James Gosling</text></g><g id="elem_GMN15"><path d="M605.5,272 L605.5,299.5 L570.65,303.5 L605.5,307.5 L605.5,335.118 A0,0 0 0 0 605.5,335.118 L824.5,335.118 A0,0 0 0 0 824.5,335.118 L824.5,282 L814.5,272 L605.5,272 A0,0 0 0 0 605.5,272 " fill="#FEFFDD" style="stroke:#181818;stroke-width:0.5;"/><path d="M814.5,272 L814.5,282 L824.5,282 L814.5,272 " fill="#FEFFDD" style="stroke:#181818;stroke-width:0.5;"/><text fill="#000000" font-family="sans-serif" font-size="13" lengthAdjust="spacing" textLength="127" x="611.5" y="290.897">Doctor/Desarrollador</text><text fill="#000000" font-family="sans-serif" font-size="13" lengthAdjust="spacing" textLength="167" x="611.5" y="308.603">en SunMicrosystem, Google</text><text fill="#000000" font-family="sans-serif" font-size="13" lengthAdjust="spacing" textLength="198" x="611.5" y="326.309">Medalla John von Neumann, IEEE</text></g><!--class que--><g id="elem_que"><rect codeLine="32" fill="#F1F1F1" height="45.412" id="que" rx="2.5" ry="2.5" style="stroke:#181818;stroke-width:0.5;" width="46" x="497" y="430.5"/><text fill="#000000" font-family="sans-serif" font-size="12" font-style="italic" lengthAdjust="spacing" textLength="44" x="498" y="448.3281">&#171;&#191;Qu&#233;?&#187;</text><text fill="#000000" font-family="sans-serif" font-size="14" font-weight="bold" lengthAdjust="spacing" textLength="34" x="503" y="466.81">JAVA</text></g><g id="elem_GMN19"><path d="M158.5,395 L158.5,511.2361 A0,0 0 0 0 158.5,511.2361 L461.5,511.2361 A0,0 0 0 0 461.5,511.2361 L461.5,457 L496.79,453 L461.5,449 L461.5,405 L451.5,395 L158.5,395 A0,0 0 0 0 158.5,395 " fill="#FEFFDD" style="stroke:#181818;stroke-width:0.5;"/><path d="M451.5,395 L451.5,405 L461.5,405 L451.5,395 " fill="#FEFFDD" style="stroke:#181818;stroke-width:0.5;"/><text fill="#000000" font-family="sans-serif" font-size="13" lengthAdjust="spacing" textLength="270" x="164.5" y="413.897">Primero llamado Oak, Green finalemente Java</text><text fill="#000000" font-family="sans-serif" font-size="13" lengthAdjust="spacing" textLength="282" x="164.5" y="431.603">Plataforma con int&#233;rprete, biblioteca y lenguaje</text><text fill="#000000" font-family="sans-serif" font-size="13" lengthAdjust="spacing" textLength="191" x="164.5" y="449.309">fuertemente tipado, imperativo,</text><text fill="#000000" font-family="sans-serif" font-size="13" lengthAdjust="spacing" textLength="266" x="164.5" y="467.0151">orientado a objetos cob clases y concurrente</text><text fill="#000000" font-family="sans-serif" font-size="13" lengthAdjust="spacing" textLength="196" x="164.5" y="484.7211">&#193;mbito general: web, sistemas, ...</text><text fill="#000000" font-family="sans-serif" font-size="13" lengthAdjust="spacing" textLength="3" x="164.5" y="502.4271">&#160;</text></g><!--class para--><g id="elem_para"><rect codeLine="42" fill="#F1F1F1" height="64.4799" id="para" rx="2.5" ry="2.5" style="stroke:#181818;stroke-width:0.5;" width="129" x="396.5" y="571"/><text fill="#000000" font-family="sans-serif" font-size="12" font-style="italic" lengthAdjust="spacing" textLength="71" x="425.5" y="588.8281">&#171;&#191;Para qu&#233;?&#187;</text><text fill="#000000" font-family="sans-serif" font-size="14" lengthAdjust="spacing" textLength="123" x="399.5" y="607.31">Independencia de</text><text fill="#000000" font-family="sans-serif" font-size="14" lengthAdjust="spacing" textLength="89" x="416.5" y="626.378">la Plataforma</text></g><g id="elem_GMN23"><path d="M632.5,571.5 L632.5,599 L525.67,603 L632.5,607 L632.5,634.618 A0,0 0 0 0 632.5,634.618 L905.5,634.618 A0,0 0 0 0 905.5,634.618 L905.5,581.5 L895.5,571.5 L632.5,571.5 A0,0 0 0 0 632.5,571.5 " fill="#FEFFDD" style="stroke:#181818;stroke-width:0.5;"/><path d="M895.5,571.5 L895.5,581.5 L905.5,581.5 L895.5,571.5 " fill="#FEFFDD" style="stroke:#181818;stroke-width:0.5;"/><text fill="#000000" font-family="sans-serif" font-size="13" lengthAdjust="spacing" textLength="172" x="638.5" y="590.397">un &#250;nico desarrollo vale para</text><text fill="#000000" font-family="sans-serif" font-size="13" lengthAdjust="spacing" textLength="252" x="638.5" y="608.103">ejecutar la aplicaci&#243;n independientemente</text><text fill="#000000" font-family="sans-serif" font-size="13" lengthAdjust="spacing" textLength="215" x="638.5" y="625.809">del sistema operativo de la m&#225;quina</text></g><!--class como--><g id="elem_como"><rect codeLine="49" fill="#F1F1F1" height="45.412" id="como" rx="2.5" ry="2.5" style="stroke:#181818;stroke-width:0.5;" width="85" x="477.5" y="695"/><text fill="#000000" font-family="sans-serif" font-size="12" font-style="italic" lengthAdjust="spacing" textLength="54" x="493" y="712.8281">&#171;&#191;C&#243;mo?&#187;</text><text fill="#000000" font-family="sans-serif" font-size="14" lengthAdjust="spacing" textLength="79" x="480.5" y="731.31">Descripci&#243;n</text></g><!--reverse link cuando to por--><g id="link_cuando_por"><path codeLine="51" d="M563.5897,67.079 C554.6797,88.219 543.33,115.15 533.21,139.15 " fill="none" id="cuando-backto-por" style="stroke:#181818;stroke-width:1.0;"/><polygon fill="#181818" points="565.92,61.55,558.7385,68.2899,563.9781,66.1575,566.1105,71.397,565.92,61.55" style="stroke:#181818;stroke-width:1.0;"/></g><!--reverse link donde to por--><g id="link_donde_por"><path codeLine="52" d="M316.5342,66.988 C353.2142,85.198 399.15,108.14 444,131 C449.83,133.97 455.9,137.09 461.96,140.21 " fill="none" id="donde-backto-por" style="stroke:#181818;stroke-width:1.0;"/><polygon fill="#181818" points="311.16,64.32,317.4426,71.9048,315.6385,66.5434,320.9999,64.7393,311.16,64.32" style="stroke:#181818;stroke-width:1.0;"/></g><!--reverse link cuando to quien--><g id="link_cuando_quien"><path codeLine="54" d="M585.621,67.2794 C597.541,100.5994 613.61,160.39 595,212 C585.17,239.26 563.17,264.12 545.53,280.86 " fill="none" id="cuando-backto-quien" style="stroke:#181818;stroke-width:1.0;"/><polygon fill="#181818" points="583.6,61.63,582.8653,71.4514,585.2842,66.3378,590.3978,68.7567,583.6,61.63" style="stroke:#181818;stroke-width:1.0;"/></g><!--reverse link donde to quien--><g id="link_donde_quien"><path codeLine="55" d="M207.9152,72.8931 C186.9052,88.3331 169.45,105.77 158,131 C143.12,163.78 135.85,183.62 158,212 C196.07,260.76 378.84,287.14 469.2,297.39 " fill="none" id="donde-backto-quien" style="stroke:#181818;stroke-width:1.0;"/><polygon fill="#181818" points="212.75,69.34,203.129,71.4464,208.721,72.3009,207.8664,77.8928,212.75,69.34" style="stroke:#181818;stroke-width:1.0;"/></g><!--reverse link por to quien--><g id="link_por_quien"><path codeLine="56" d="M520,209.64 C520,233.53 520,259.88 520,280.96 " fill="none" id="por-backto-quien" style="stroke:#181818;stroke-width:1.0;"/><polygon fill="#181818" points="520,203.64,516,212.64,520,208.64,524,212.64,520,203.64" style="stroke:#181818;stroke-width:1.0;"/></g><!--reverse link quien to que--><g id="link_quien_que"><path codeLine="58" d="M520,332.26 C520,360.15 520,402.22 520,430.15 " fill="none" id="quien-backto-que" style="stroke:#181818;stroke-width:1.0;"/><polygon fill="#181818" points="520,326.26,516,335.26,520,331.26,524,335.26,520,326.26" style="stroke:#181818;stroke-width:1.0;"/></g><!--reverse link que to para--><g id="link_que_para"><path codeLine="60" d="M509.1986,481.0936 C499.1986,506.1836 484.8,542.29 473.4,570.9 " fill="none" id="que-backto-para" style="stroke:#181818;stroke-width:1.0;"/><polygon fill="#181818" points="511.42,475.52,504.3721,482.3995,509.5688,480.1647,511.8036,485.3614,511.42,475.52" style="stroke:#181818;stroke-width:1.0;"/></g><!--reverse link que to como--><g id="link_que_como"><path codeLine="62" d="M528.0626,481.5375 C537.3626,515.5475 550.95,577.58 543,635 C540.14,655.68 533.37,678.49 527.92,694.71 " fill="none" id="que-backto-como" style="stroke:#181818;stroke-width:1.0;"/><polygon fill="#181818" points="526.48,475.75,524.9955,485.4863,527.7988,480.5729,532.7122,483.3762,526.48,475.75" style="stroke:#181818;stroke-width:1.0;"/></g><!--reverse link para to como--><g id="link_para_como"><path codeLine="63" d="M480.0669,640.3535 C490.0269,659.3435 499.73,677.86 508.63,694.82 " fill="none" id="para-backto-como" style="stroke:#181818;stroke-width:1.0;"/><polygon fill="#181818" points="477.28,635.04,477.918,644.8682,479.6024,639.4679,485.0026,641.1524,477.28,635.04" style="stroke:#181818;stroke-width:1.0;"/></g><!--SRC=[RLGzJnj14EttLuoe3OYIo7A4C8cmHE881HgQkRsnlMG_ZjbT8vVvAPJKT6aYvVuOitSss3ZTxNoycNdpvXQc9j26jIMrAD-EN4KSbT8MOuGwU35YX8FhxE_ybT4SuYecSl40XiD_VyVjYqHy7esK3ud0qYofBrYnqUZbBSaBvFeHcTHANX6PWxMXE6AOfSunDS4JTxPhO-rA1mytQ2sj5FaQ2l2c7vtHrw5hwEJqzAJluJotJs9zQuBDV97KUJ1UczfGIH18PH5k0ziQRikWjrJjeJU1E-WnDU8YIKTfwivBPcCnuIommxxcL48VSlkyE_bF3ms7EQD3AUaQOr6AarVP8xZswI4RNpmUieTeX4Q4q11ZCiim422OPQaQF7Bx17HFEgU244F512eaOIcQk9ktDuPK8TyDCa574Rw6Q8sVzut_oAPzzX-u6WUT0X-FD_kHcYom84lVMlb0aC9Sb795jQm7OH8M7fOopJVA3hqVmEN5nSL_-kabDAn6axERi-5nDThqyf70AHjNf23ehWp-7Nz9LIRfPIRKMN9KP3N19QhfsqewHerFxJCtJ8a6K9dA6a7L22j1zlECzwHccJYj8P9ffC00Z7lZNmXcOQvZNFYjxYa5aLoeeCmXHAvA8PsP2u9gVxlAf01p4lMY_GIFL0qswua3E3ew0hMlCMJisBWKXUt9RFfHPYLwHsVzmaG-xHzlTDY-gQNmq-6hjN8O118RAyUeZHogSDJNB5FsFAYQxBwaoYdQTyNkds5mONqfKRDfElJrCROlhZj5LQxfC3U7e_NLRXcwtufIlL1tOhPDVTIsHH1A5gsVdKiA5P8sbj9ZwUxzlVKiaQy0]--></g></svg>