<?xml version="1.0" encoding="us-ascii" standalone="no"?><svg xmlns="http://www.w3.org/2000/svg" xmlns:xlink="http://www.w3.org/1999/xlink" contentStyleType="text/css" height="268px" preserveAspectRatio="none" style="width:577px;height:268px;background:#FFFFFF;" version="1.1" viewBox="0 0 577 268" width="577px" zoomAndPan="magnify"><defs/><g><!--cluster machine--><g id="cluster_machine"><polygon fill="none" points="16,16,26,6,348,6,348,241,338,251,16,251,16,16" style="stroke:#181818;stroke-width:1.0;"/><line style="stroke:#181818;stroke-width:1.0;" x1="338" x2="348" y1="16" y2="6"/><line style="stroke:#181818;stroke-width:1.0;" x1="16" x2="338" y1="16" y2="16"/><line style="stroke:#181818;stroke-width:1.0;" x1="338" x2="338" y1="16" y2="251"/><text fill="#000000" font-family="sans-serif" font-size="14" font-weight="bold" lengthAdjust="spacing" textLength="70" x="143" y="33.9659">machine ?</text></g><!--cluster machine2--><g id="cluster_machine2"><polygon fill="none" points="372,16,382,6,560,6,560,241,550,251,372,251,372,16" style="stroke:#181818;stroke-width:1.0;"/><line style="stroke:#181818;stroke-width:1.0;" x1="550" x2="560" y1="16" y2="6"/><line style="stroke:#181818;stroke-width:1.0;" x1="372" x2="550" y1="16" y2="16"/><line style="stroke:#181818;stroke-width:1.0;" x1="550" x2="550" y1="16" y2="251"/><text fill="#000000" font-family="sans-serif" font-size="14" font-weight="bold" lengthAdjust="spacing" textLength="70" x="427" y="33.9659">machine ?</text></g><!--entity javac--><g id="elem_javac"><rect fill="#F1F1F1" height="68.1358" rx="2.5" ry="2.5" style="stroke:#181818;stroke-width:0.5;" width="109" x="222.5" y="49"/><rect fill="#F1F1F1" height="10" style="stroke:#181818;stroke-width:0.5;" width="15" x="311.5" y="54"/><rect fill="#F1F1F1" height="2" style="stroke:#181818;stroke-width:0.5;" width="4" x="309.5" y="56"/><rect fill="#F1F1F1" height="2" style="stroke:#181818;stroke-width:0.5;" width="4" x="309.5" y="60"/><text fill="#000000" font-family="sans-serif" font-size="14" font-style="italic" lengthAdjust="spacing" textLength="69" x="237.5" y="83.9659">&#171;compiler&#187;</text><text fill="#000000" font-family="sans-serif" font-size="14" lengthAdjust="spacing" textLength="61" x="241.5" y="103.0339">javac.exe</text></g><!--entity text--><g id="elem_text"><path d="M235.5,179.5 L235.5,232.6358 A2.5,2.5 0 0 0 238,235.1358 L316,235.1358 A2.5,2.5 0 0 0 318.5,232.6358 L318.5,187 L308.5,177 L238,177 A2.5,2.5 0 0 0 235.5,179.5 " fill="#F1F1F1" style="stroke:#181818;stroke-width:0.5;"/><path d="M308.5,177 L308.5,184.5 A2.5,2.5 0 0 0 311,187 L318.5,187 " fill="#F1F1F1" style="stroke:#181818;stroke-width:0.5;"/><text fill="#000000" font-family="sans-serif" font-size="14" font-style="italic" lengthAdjust="spacing" textLength="43" x="255.5" y="201.9659">&#171;code&#187;</text><text fill="#000000" font-family="sans-serif" font-size="14" lengthAdjust="spacing" textLength="63" x="245.5" y="221.0339">prog.java</text></g><!--entity java--><g id="elem_java"><rect fill="#F1F1F1" height="68.1358" rx="2.5" ry="2.5" style="stroke:#181818;stroke-width:0.5;" width="155" x="32.5" y="49"/><rect fill="#F1F1F1" height="10" style="stroke:#181818;stroke-width:0.5;" width="15" x="167.5" y="54"/><rect fill="#F1F1F1" height="2" style="stroke:#181818;stroke-width:0.5;" width="4" x="165.5" y="56"/><rect fill="#F1F1F1" height="2" style="stroke:#181818;stroke-width:0.5;" width="4" x="165.5" y="60"/><text fill="#000000" font-family="sans-serif" font-size="14" font-style="italic" lengthAdjust="spacing" textLength="115" x="47.5" y="83.9659">&#171;interpreter, JVM&#187;</text><text fill="#000000" font-family="sans-serif" font-size="14" lengthAdjust="spacing" textLength="54" x="78" y="103.0339">java.exe</text></g><!--entity out--><g id="elem_out"><path d="M87,179.5 L87,232.6358 A2.5,2.5 0 0 0 89.5,235.1358 L174.5,235.1358 A2.5,2.5 0 0 0 177,232.6358 L177,187 L167,177 L89.5,177 A2.5,2.5 0 0 0 87,179.5 " fill="#F1F1F1" style="stroke:#181818;stroke-width:0.5;"/><path d="M167,177 L167,184.5 A2.5,2.5 0 0 0 169.5,187 L177,187 " fill="#F1F1F1" style="stroke:#181818;stroke-width:0.5;"/><text fill="#000000" font-family="sans-serif" font-size="14" font-style="italic" lengthAdjust="spacing" textLength="70" x="97" y="201.9659">&#171;bytecode&#187;</text><text fill="#000000" font-family="sans-serif" font-size="14" lengthAdjust="spacing" textLength="69" x="97.5" y="221.0339">prog.class</text></g><!--entity java2--><g id="elem_java2"><rect fill="#F1F1F1" height="68.1358" rx="2.5" ry="2.5" style="stroke:#181818;stroke-width:0.5;" width="155" x="388.5" y="49"/><rect fill="#F1F1F1" height="10" style="stroke:#181818;stroke-width:0.5;" width="15" x="523.5" y="54"/><rect fill="#F1F1F1" height="2" style="stroke:#181818;stroke-width:0.5;" width="4" x="521.5" y="56"/><rect fill="#F1F1F1" height="2" style="stroke:#181818;stroke-width:0.5;" width="4" x="521.5" y="60"/><text fill="#000000" font-family="sans-serif" font-size="14" font-style="italic" lengthAdjust="spacing" textLength="115" x="403.5" y="83.9659">&#171;interpreter, JVM&#187;</text><text fill="#000000" font-family="sans-serif" font-size="14" lengthAdjust="spacing" textLength="54" x="434" y="103.0339">java.exe</text></g><!--entity out2--><g id="elem_out2"><path d="M421,179.5 L421,232.6358 A2.5,2.5 0 0 0 423.5,235.1358 L508.5,235.1358 A2.5,2.5 0 0 0 511,232.6358 L511,187 L501,177 L423.5,177 A2.5,2.5 0 0 0 421,179.5 " fill="#F1F1F1" style="stroke:#181818;stroke-width:0.5;"/><path d="M501,177 L501,184.5 A2.5,2.5 0 0 0 503.5,187 L511,187 " fill="#F1F1F1" style="stroke:#181818;stroke-width:0.5;"/><text fill="#000000" font-family="sans-serif" font-size="14" font-style="italic" lengthAdjust="spacing" textLength="70" x="431" y="201.9659">&#171;bytecode&#187;</text><text fill="#000000" font-family="sans-serif" font-size="14" lengthAdjust="spacing" textLength="69" x="431.5" y="221.0339">prog.class</text></g><!--link javac to text--><g id="link_javac_text"><path d="M277,117.06 C277,135.82 277,153.03 277,170.9 " fill="none" id="javac-to-text" style="stroke:#181818;stroke-width:1.0;"/><polygon fill="#181818" points="277,176.9,281,167.9,277,171.9,273,167.9,277,176.9" style="stroke:#181818;stroke-width:1.0;"/></g><!--link javac to out--><g id="link_javac_out"><path d="M237.38,117.06 C214.91,135.82 191.6963,155.1853 170.2863,173.0553 " fill="none" id="javac-to-out" style="stroke:#181818;stroke-width:1.0;"/><polygon fill="#181818" points="165.68,176.9,175.1526,174.2038,169.5186,173.6961,170.0264,168.0621,165.68,176.9" style="stroke:#181818;stroke-width:1.0;"/></g><!--link java to out--><g id="link_java_out"><path d="M116.01,117.06 C119.42,135.82 122.5664,153.1268 125.8164,170.9968 " fill="none" id="java-to-out" style="stroke:#181818;stroke-width:1.0;"/><polygon fill="#181818" points="126.89,176.9,129.215,167.3295,125.9953,171.9807,121.3442,168.761,126.89,176.9" style="stroke:#181818;stroke-width:1.0;"/></g><!--link java2 to out2--><g id="link_java2_out2"><path d="M466,117.06 C466,135.82 466,153.03 466,170.9 " fill="none" id="java2-to-out2" style="stroke:#181818;stroke-width:1.0;"/><polygon fill="#181818" points="466,176.9,470,167.9,466,171.9,462,167.9,466,176.9" style="stroke:#181818;stroke-width:1.0;"/></g><!--SRC=[bP2n3e8m48RtUufBPs7etE1kukfUowaOk99I56DyTqih1XaqBktbykN__XpRah3HvbGneUvGJFDQu1t0sAQrJEpnh2_QH29EEGqaKAaHg6foHG67yAEdmKUgTVQOZsYYIWf4oiXAU-MiYEX2yCwVuYlsv5f7uLtXPhUTDBQVMKojkquejRzvUfbWuGfyt7mi01u0F3k0_7a1-Kz3-RrYofiLacEZ9m00]--></g></svg>