<?xml version="1.0" encoding="us-ascii" standalone="no"?><svg xmlns="http://www.w3.org/2000/svg" xmlns:xlink="http://www.w3.org/1999/xlink" contentStyleType="text/css" height="249px" preserveAspectRatio="none" style="width:381px;height:249px;background:#FFFFFF;" version="1.1" viewBox="0 0 381 249" width="381px" zoomAndPan="magnify"><defs/><g><!--cluster machine--><g id="cluster_machine"><polygon fill="none" points="16,16,26,6,178,6,178,222,168,232,16,232,16,16" style="stroke:#181818;stroke-width:1.0;"/><line style="stroke:#181818;stroke-width:1.0;" x1="168" x2="178" y1="16" y2="6"/><line style="stroke:#181818;stroke-width:1.0;" x1="16" x2="168" y1="16" y2="16"/><line style="stroke:#181818;stroke-width:1.0;" x1="168" x2="168" y1="16" y2="232"/><text fill="#000000" font-family="sans-serif" font-size="14" font-weight="bold" lengthAdjust="spacing" textLength="72" x="57" y="33.9659">machine X</text></g><!--cluster machine2--><g id="cluster_machine2"><polygon fill="none" points="202,16,212,6,364,6,364,222,354,232,202,232,202,16" style="stroke:#181818;stroke-width:1.0;"/><line style="stroke:#181818;stroke-width:1.0;" x1="354" x2="364" y1="16" y2="6"/><line style="stroke:#181818;stroke-width:1.0;" x1="202" x2="354" y1="16" y2="16"/><line style="stroke:#181818;stroke-width:1.0;" x1="354" x2="354" y1="16" y2="232"/><text fill="#000000" font-family="sans-serif" font-size="14" font-weight="bold" lengthAdjust="spacing" textLength="72" x="243" y="33.9659">machine Y</text></g><!--entity interprete--><g id="elem_interprete"><rect fill="#F1F1F1" height="49.0679" rx="2.5" ry="2.5" style="stroke:#181818;stroke-width:0.5;" width="129" x="32.5" y="49"/><rect fill="#F1F1F1" height="10" style="stroke:#181818;stroke-width:0.5;" width="15" x="141.5" y="54"/><rect fill="#F1F1F1" height="2" style="stroke:#181818;stroke-width:0.5;" width="4" x="139.5" y="56"/><rect fill="#F1F1F1" height="2" style="stroke:#181818;stroke-width:0.5;" width="4" x="139.5" y="60"/><text fill="#000000" font-family="sans-serif" font-size="14" lengthAdjust="spacing" textLength="89" x="47.5" y="83.9659">interprete XA</text></g><!--entity in--><g id="elem_in"><path d="M59,160.5 L59,213.6358 A2.5,2.5 0 0 0 61.5,216.1358 L132.5,216.1358 A2.5,2.5 0 0 0 135,213.6358 L135,168 L125,158 L61.5,158 A2.5,2.5 0 0 0 59,160.5 " fill="#F1F1F1" style="stroke:#181818;stroke-width:0.5;"/><path d="M125,158 L125,165.5 A2.5,2.5 0 0 0 127.5,168 L135,168 " fill="#F1F1F1" style="stroke:#181818;stroke-width:0.5;"/><text fill="#000000" font-family="sans-serif" font-size="14" font-style="italic" lengthAdjust="spacing" textLength="43" x="75.5" y="182.9659">&#171;code&#187;</text><text fill="#000000" font-family="sans-serif" font-size="14" lengthAdjust="spacing" textLength="56" x="69" y="202.0339">prog.ext</text></g><!--entity interprete2--><g id="elem_interprete2"><rect fill="#F1F1F1" height="49.0679" rx="2.5" ry="2.5" style="stroke:#181818;stroke-width:0.5;" width="129" x="218.5" y="49"/><rect fill="#F1F1F1" height="10" style="stroke:#181818;stroke-width:0.5;" width="15" x="327.5" y="54"/><rect fill="#F1F1F1" height="2" style="stroke:#181818;stroke-width:0.5;" width="4" x="325.5" y="56"/><rect fill="#F1F1F1" height="2" style="stroke:#181818;stroke-width:0.5;" width="4" x="325.5" y="60"/><text fill="#000000" font-family="sans-serif" font-size="14" lengthAdjust="spacing" textLength="89" x="233.5" y="83.9659">interprete YA</text></g><!--entity in2--><g id="elem_in2"><path d="M245,160.5 L245,213.6358 A2.5,2.5 0 0 0 247.5,216.1358 L318.5,216.1358 A2.5,2.5 0 0 0 321,213.6358 L321,168 L311,158 L247.5,158 A2.5,2.5 0 0 0 245,160.5 " fill="#F1F1F1" style="stroke:#181818;stroke-width:0.5;"/><path d="M311,158 L311,165.5 A2.5,2.5 0 0 0 313.5,168 L321,168 " fill="#F1F1F1" style="stroke:#181818;stroke-width:0.5;"/><text fill="#000000" font-family="sans-serif" font-size="14" font-style="italic" lengthAdjust="spacing" textLength="43" x="261.5" y="182.9659">&#171;code&#187;</text><text fill="#000000" font-family="sans-serif" font-size="14" lengthAdjust="spacing" textLength="56" x="255" y="202.0339">prog.ext</text></g><!--link interprete to in--><g id="link_interprete_in"><path d="M97,98.15 C97,115.53 97,133.24 97,151.65 " fill="none" id="interprete-to-in" style="stroke:#181818;stroke-width:1.0;"/><polygon fill="#181818" points="97,157.65,101,148.65,97,152.65,93,148.65,97,157.65" style="stroke:#181818;stroke-width:1.0;"/></g><!--link interprete2 to in2--><g id="link_interprete2_in2"><path d="M283,98.15 C283,115.53 283,133.24 283,151.65 " fill="none" id="interprete2-to-in2" style="stroke:#181818;stroke-width:1.0;"/><polygon fill="#181818" points="283,157.65,287,148.65,283,152.65,279,148.65,283,157.65" style="stroke:#181818;stroke-width:1.0;"/></g><!--SRC=[ZSx12i8m3CRn-_SK8VTvo7aKzXRRSNHH2oujjQ0WlhjL6LH1y9QGF-5dSL5QPtyCfZIVYRTvPBe1FgufcbgXO4LpobhUMREE0sCVJbgJrodbUDZfjJ3rlQ_ldGEQl5lYnJfNQm1tm1g1V12cdmJvDam3quQGFnJICEJfU000]--></g></svg>