<?xml version="1.0" encoding="us-ascii" standalone="no"?><svg xmlns="http://www.w3.org/2000/svg" xmlns:xlink="http://www.w3.org/1999/xlink" contentStyleType="text/css" height="552px" preserveAspectRatio="none" style="width:287px;height:552px;background:#FFFFFF;" version="1.1" viewBox="0 0 287 552" width="287px" zoomAndPan="magnify"><defs/><g><ellipse cx="127.5" cy="20" fill="#222222" rx="10" ry="10" style="stroke:#222222;stroke-width:1.0;"/><rect fill="#F1F1F1" height="36.3441" rx="12.5" ry="12.5" style="stroke:#181818;stroke-width:0.5;" width="50" x="102.5" y="50"/><text fill="#000000" font-family="sans-serif" font-size="12" lengthAdjust="spacing" textLength="30" x="112.5" y="72.8281">Inicio</text><polygon fill="#F1F1F1" points="115.5,150.3441,139.5,150.3441,151.5,162.3441,139.5,174.3441,115.5,174.3441,103.5,162.3441,115.5,150.3441" style="stroke:#181818;stroke-width:0.5;"/><text fill="#000000" font-family="sans-serif" font-size="11" lengthAdjust="spacing" textLength="23" x="116" y="166.6121">Leer</text><text fill="#000000" font-family="sans-serif" font-size="11" lengthAdjust="spacing" textLength="26" x="77.5" y="159.1211">0 o B</text><text fill="#000000" font-family="sans-serif" font-size="11" lengthAdjust="spacing" textLength="6" x="151.5" y="159.1211">1</text><rect fill="#F1F1F1" height="36.3441" rx="12.5" ry="12.5" style="stroke:#181818;stroke-width:0.5;" width="72" x="27.5" y="184.3441"/><text fill="#000000" font-family="sans-serif" font-size="12" lengthAdjust="spacing" textLength="52" x="37.5" y="207.1722">Escribir 1</text><rect fill="#F1F1F1" height="36.3441" rx="12.5" ry="12.5" style="stroke:#181818;stroke-width:0.5;" width="105" x="11" y="240.6882"/><text fill="#000000" font-family="sans-serif" font-size="12" lengthAdjust="spacing" textLength="85" x="21" y="263.5163">Mover derecha</text><ellipse cx="63.5" cy="308.0323" fill="none" rx="11" ry="11" style="stroke:#222222;stroke-width:1.0;"/><ellipse cx="63.5" cy="308.0323" fill="#222222" rx="6" ry="6" style="stroke:#222222;stroke-width:1.0;"/><rect fill="#F1F1F1" height="36.3441" rx="12.5" ry="12.5" style="stroke:#181818;stroke-width:0.5;" width="72" x="155.5" y="184.3441"/><text fill="#000000" font-family="sans-serif" font-size="12" lengthAdjust="spacing" textLength="52" x="165.5" y="207.1722">Escribir 0</text><rect fill="#F1F1F1" height="36.3441" rx="12.5" ry="12.5" style="stroke:#181818;stroke-width:0.5;" width="111" x="136" y="240.6882"/><text fill="#000000" font-family="sans-serif" font-size="12" lengthAdjust="spacing" textLength="91" x="146" y="263.5163">Mover izquierda</text><polygon fill="#F1F1F1" points="127.5,106.3441,139.5,118.3441,127.5,130.3441,115.5,118.3441,127.5,106.3441" style="stroke:#181818;stroke-width:0.5;"/><polygon fill="#F1F1F1" points="93.5,339.0323,161.5,339.0323,173.5,351.0323,161.5,363.0323,93.5,363.0323,81.5,351.0323,93.5,339.0323" style="stroke:#181818;stroke-width:0.5;"/><text fill="#000000" font-family="sans-serif" font-size="11" lengthAdjust="spacing" textLength="68" x="93.5" y="355.3003">Leer s&#237;mbolo</text><text fill="#000000" font-family="sans-serif" font-size="11" lengthAdjust="spacing" textLength="6" x="173.5" y="347.8094">1</text><rect fill="#F1F1F1" height="36.3441" rx="12.5" ry="12.5" style="stroke:#181818;stroke-width:0.5;" width="72" x="91.5" y="407.2372"/><text fill="#000000" font-family="sans-serif" font-size="12" lengthAdjust="spacing" textLength="52" x="101.5" y="430.0653">Escribir 1</text><rect fill="#F1F1F1" height="36.3441" rx="12.5" ry="12.5" style="stroke:#181818;stroke-width:0.5;" width="105" x="75" y="463.5813"/><text fill="#000000" font-family="sans-serif" font-size="12" lengthAdjust="spacing" textLength="85" x="85" y="486.4094">Mover derecha</text><ellipse cx="127.5" cy="530.9254" fill="none" rx="11" ry="11" style="stroke:#222222;stroke-width:1.0;"/><ellipse cx="127.5" cy="530.9254" fill="#222222" rx="6" ry="6" style="stroke:#222222;stroke-width:1.0;"/><line style="stroke:#181818;stroke-width:1.0;" x1="127.5" x2="127.5" y1="30" y2="50"/><polygon fill="#181818" points="123.5,40,127.5,50,131.5,40,127.5,44" style="stroke:#181818;stroke-width:1.0;"/><line style="stroke:#181818;stroke-width:1.0;" x1="63.5" x2="63.5" y1="220.6882" y2="240.6882"/><polygon fill="#181818" points="59.5,230.6882,63.5,240.6882,67.5,230.6882,63.5,234.6882" style="stroke:#181818;stroke-width:1.0;"/><line style="stroke:#181818;stroke-width:1.0;" x1="63.5" x2="63.5" y1="277.0323" y2="297.0323"/><polygon fill="#181818" points="59.5,287.0323,63.5,297.0323,67.5,287.0323,63.5,291.0323" style="stroke:#181818;stroke-width:1.0;"/><line style="stroke:#181818;stroke-width:1.0;" x1="191.5" x2="191.5" y1="220.6882" y2="240.6882"/><polygon fill="#181818" points="187.5,230.6882,191.5,240.6882,195.5,230.6882,191.5,234.6882" style="stroke:#181818;stroke-width:1.0;"/><line style="stroke:#181818;stroke-width:1.0;" x1="103.5" x2="63.5" y1="162.3441" y2="162.3441"/><line style="stroke:#181818;stroke-width:1.0;" x1="63.5" x2="63.5" y1="162.3441" y2="184.3441"/><polygon fill="#181818" points="59.5,174.3441,63.5,184.3441,67.5,174.3441,63.5,178.3441" style="stroke:#181818;stroke-width:1.0;"/><line style="stroke:#181818;stroke-width:1.0;" x1="151.5" x2="191.5" y1="162.3441" y2="162.3441"/><line style="stroke:#181818;stroke-width:1.0;" x1="191.5" x2="191.5" y1="162.3441" y2="184.3441"/><polygon fill="#181818" points="187.5,174.3441,191.5,184.3441,195.5,174.3441,191.5,178.3441" style="stroke:#181818;stroke-width:1.0;"/><line style="stroke:#181818;stroke-width:1.0;" x1="191.5" x2="191.5" y1="277.0323" y2="324.0323"/><line style="stroke:#181818;stroke-width:1.0;" x1="191.5" x2="127.5" y1="324.0323" y2="324.0323"/><line style="stroke:#181818;stroke-width:1.0;" x1="127.5" x2="127.5" y1="324.0323" y2="339.0323"/><polygon fill="#181818" points="123.5,329.0323,127.5,339.0323,131.5,329.0323,127.5,333.0323" style="stroke:#181818;stroke-width:1.0;"/><line style="stroke:#181818;stroke-width:1.0;" x1="127.5" x2="127.5" y1="130.3441" y2="150.3441"/><polygon fill="#181818" points="123.5,140.3441,127.5,150.3441,131.5,140.3441,127.5,144.3441" style="stroke:#181818;stroke-width:1.0;"/><line style="stroke:#181818;stroke-width:1.0;" x1="173.5" x2="261" y1="351.0323" y2="351.0323"/><polygon fill="#181818" points="257,247.6882,261,237.6882,265,247.6882,261,243.6882" style="stroke:#181818;stroke-width:1.0;"/><line style="stroke:#181818;stroke-width:1.0;" x1="261" x2="261" y1="118.3441" y2="351.0323"/><line style="stroke:#181818;stroke-width:1.0;" x1="261" x2="139.5" y1="118.3441" y2="118.3441"/><polygon fill="#181818" points="149.5,114.3441,139.5,118.3441,149.5,122.3441,145.5,118.3441" style="stroke:#181818;stroke-width:1.0;"/><line style="stroke:#181818;stroke-width:1.0;" x1="127.5" x2="127.5" y1="86.3441" y2="106.3441"/><polygon fill="#181818" points="123.5,96.3441,127.5,106.3441,131.5,96.3441,127.5,100.3441" style="stroke:#181818;stroke-width:1.0;"/><line style="stroke:#181818;stroke-width:1.0;" x1="127.5" x2="127.5" y1="363.0323" y2="407.2372"/><polygon fill="#181818" points="123.5,397.2372,127.5,407.2372,131.5,397.2372,127.5,401.2372" style="stroke:#181818;stroke-width:1.0;"/><text fill="#000000" font-family="sans-serif" font-size="11" lengthAdjust="spacing" textLength="26" x="131.5" y="386.5142">0 o B</text><line style="stroke:#181818;stroke-width:1.0;" x1="127.5" x2="127.5" y1="443.5813" y2="463.5813"/><polygon fill="#181818" points="123.5,453.5813,127.5,463.5813,131.5,453.5813,127.5,457.5813" style="stroke:#181818;stroke-width:1.0;"/><line style="stroke:#181818;stroke-width:1.0;" x1="127.5" x2="127.5" y1="499.9254" y2="519.9254"/><polygon fill="#181818" points="123.5,509.9254,127.5,519.9254,131.5,509.9254,127.5,513.9254" style="stroke:#181818;stroke-width:1.0;"/><!--SRC=[NSuz2i9050JWVaynPL88IPk0XM0Xw27oCo4FrjtuTgFWdJo55pDiR9BkCOyPlX0RZQQwEEd4rqOviOa6a07PbTGSSQH3Li3Zb2yFe3g7JgKLHLclmSq_gUYfxCPcpKBqqtBG1Y8hzyLYKvJtOnPgdwfqlGn_1rwZMAuGXE_dtdhhSqX8auTZGjLc0zfZ4kG7]--></g></svg>