<?xml version="1.0" encoding="us-ascii" standalone="no"?><svg xmlns="http://www.w3.org/2000/svg" xmlns:xlink="http://www.w3.org/1999/xlink" contentStyleType="text/css" height="492px" preserveAspectRatio="none" style="width:301px;height:492px;background:#FFFFFF;" version="1.1" viewBox="0 0 301 492" width="301px" zoomAndPan="magnify"><defs/><g><ellipse cx="100.47" cy="20" fill="#222222" rx="10" ry="10" style="stroke:#222222;stroke-width:1.0;"/><g id="q1"><rect fill="#F1F1F1" height="50" rx="12.5" ry="12.5" style="stroke:#181818;stroke-width:0.5;" width="50" x="75.47" y="95"/><line style="stroke:#181818;stroke-width:0.5;" x1="75.47" x2="125.47" y1="124.0679" y2="124.0679"/><text fill="#000000" font-family="sans-serif" font-size="14" lengthAdjust="spacing" textLength="17" x="91.97" y="114.9659">q1</text></g><g id="q3"><rect fill="#F1F1F1" height="50" rx="12.5" ry="12.5" style="stroke:#181818;stroke-width:0.5;" width="50" x="104.47" y="353"/><line style="stroke:#181818;stroke-width:0.5;" x1="104.47" x2="154.47" y1="382.0679" y2="382.0679"/><text fill="#000000" font-family="sans-serif" font-size="14" lengthAdjust="spacing" textLength="17" x="120.97" y="372.9659">q3</text></g><g id="q2"><rect fill="#F1F1F1" height="50" rx="12.5" ry="12.5" style="stroke:#181818;stroke-width:0.5;" width="50" x="168.47" y="224"/><line style="stroke:#181818;stroke-width:0.5;" x1="168.47" x2="218.47" y1="253.0679" y2="253.0679"/><text fill="#000000" font-family="sans-serif" font-size="14" lengthAdjust="spacing" textLength="17" x="184.97" y="243.9659">q2</text></g><ellipse cx="129.47" cy="475" fill="none" rx="11" ry="11" style="stroke:#222222;stroke-width:1.0;"/><ellipse cx="129.47" cy="475" fill="#222222" rx="6" ry="6" style="stroke:#222222;stroke-width:1.0;"/><g id="elem_n1"><path d="M145.47,6 L145.47,33.706 L289.47,33.706 L289.47,16 L279.47,6 L145.47,6 " fill="#FEFFDD" style="stroke:#181818;stroke-width:0.5;"/><path d="M279.47,6 L279.47,16 L289.47,16 L279.47,6 " fill="#FEFFDD" style="stroke:#181818;stroke-width:1.0;"/><text fill="#000000" font-family="sans-serif" font-size="13" lengthAdjust="spacing" textLength="123" x="151.47" y="24.897">Leido/Escrito, Acci&#243;n</text></g><!--link *start* to q1--><g id="link_*start*_q1"><path d="M100.47,30.04 C100.47,44.64 100.47,67.87 100.47,88.84 " fill="none" id="*start*-to-q1" style="stroke:#181818;stroke-width:1.0;"/><polygon fill="#181818" points="100.47,94.84,104.47,85.84,100.47,89.84,96.47,85.84,100.47,94.84" style="stroke:#181818;stroke-width:1.0;"/></g><!--link q1 to q3--><g id="link_q1_q3"><path d="M75.25,144.42 C46.55,174.08 6,226.99 25.47,274 C41.22,312.03 73.7616,339.7435 99.1516,357.4835 " fill="none" id="q1-to-q3" style="stroke:#181818;stroke-width:1.0;"/><polygon fill="#181818" points="104.07,360.92,98.9834,352.4863,99.9713,358.0563,94.4014,359.0442,104.07,360.92" style="stroke:#181818;stroke-width:1.0;"/><text fill="#000000" font-family="sans-serif" font-size="13" lengthAdjust="spacing" textLength="30" x="26.47" y="254.397">0/1,R</text></g><!--link q1 to q3--><g id="link_q1_q3"><path d="M103.2,145.08 C108.72,193.88 120.5144,297.9382 126.0544,346.8282 " fill="none" id="q1-to-q3-1" style="stroke:#181818;stroke-width:1.0;"/><polygon fill="#181818" points="126.73,352.79,129.6912,343.3969,126.167,347.8218,121.7421,344.2976,126.73,352.79" style="stroke:#181818;stroke-width:1.0;"/><text fill="#000000" font-family="sans-serif" font-size="13" lengthAdjust="spacing" textLength="31" x="117.47" y="254.397">B/1,R</text></g><!--link q1 to q2--><g id="link_q1_q2"><path d="M118.18,145.19 C134.73,167.78 155.7448,196.4894 172.2748,219.0594 " fill="none" id="q1-to-q2" style="stroke:#181818;stroke-width:1.0;"/><polygon fill="#181818" points="175.82,223.9,173.7293,214.2756,172.8657,219.8662,167.2751,219.0026,175.82,223.9" style="stroke:#181818;stroke-width:1.0;"/><text fill="#000000" font-family="sans-serif" font-size="13" lengthAdjust="spacing" textLength="29" x="153.47" y="189.897">1/0,L</text></g><!--link q2 to q3--><g id="link_q2_q3"><path d="M174.4,274.11 C167.83,283.14 160.79,293.72 155.47,304 C147.37,319.65 142.5302,332.6702 138.0002,347.2502 " fill="none" id="q2-to-q3" style="stroke:#181818;stroke-width:1.0;"/><polygon fill="#181818" points="136.22,352.98,142.7102,345.5721,137.7035,348.2052,135.0705,343.1985,136.22,352.98" style="stroke:#181818;stroke-width:1.0;"/><text fill="#000000" font-family="sans-serif" font-size="13" lengthAdjust="spacing" textLength="30" x="156.47" y="318.897">0/1,R</text></g><!--link q2 to q3--><g id="link_q2_q3"><path d="M197.54,274.14 C198.92,288.93 198.61,307.86 191.47,323 C183.67,339.52 173.105,349.6074 159.555,358.9774 " fill="none" id="q2-to-q3-1" style="stroke:#181818;stroke-width:1.0;"/><polygon fill="#181818" points="154.62,362.39,164.2976,360.5611,158.7325,359.5462,159.7474,353.9811,154.62,362.39" style="stroke:#181818;stroke-width:1.0;"/><text fill="#000000" font-family="sans-serif" font-size="13" lengthAdjust="spacing" textLength="31" x="197.47" y="318.897">B/1,R</text></g><!--link q2 to q2--><g id="link_q2_q2"><path d="M218.75,238.17 C236.24,234.89 253.47,238.5 253.47,249 C253.47,259.5 242.1372,264.2159 224.6472,260.9359 " fill="none" id="q2-to-q2" style="stroke:#181818;stroke-width:1.0;"/><polygon fill="#181818" points="218.75,259.83,226.8585,265.4204,223.6643,260.7516,228.3331,257.5574,218.75,259.83" style="stroke:#181818;stroke-width:1.0;"/><text fill="#000000" font-family="sans-serif" font-size="13" lengthAdjust="spacing" textLength="29" x="259.47" y="254.397">1/0,L</text></g><!--link q3 to *end*--><g id="link_q3_*end*"><path d="M129.47,403.46 C129.47,423.04 129.47,443.49 129.47,457.8 " fill="none" id="q3-to-*end*" style="stroke:#181818;stroke-width:1.0;"/><polygon fill="#181818" points="129.47,463.8,133.47,454.8,129.47,458.8,125.47,454.8,129.47,463.8" style="stroke:#181818;stroke-width:1.0;"/></g><!--SRC=[YzQALT3LjLCeDEGgD8ImZ1Mi50pq3NM2K4ISK4ICW2A6-WOwFbn09hek8mnTHXYwZC4YqLgnN5nv-IMf2ae-gPaf-VgknSb5cINvEWgEoScPXpVdAIaa5Yla6G80]--></g></svg>